<?xml version="1.0" encoding="utf-8"?>
<!-- Generator: Adobe Illustrator 19.2.1, SVG Export Plug-In . SVG Version: 6.00 Build 0)  -->
<svg version="1.0" id="Layer_1" xmlns="http://www.w3.org/2000/svg" xmlns:xlink="http://www.w3.org/1999/xlink" x="0px" y="0px"
	 width="1400px" height="980px" viewBox="0 0 1400 980" style="enable-background:new 0 0 1400 980;" xml:space="preserve">
<style type="text/css">
	.st0{fill:#D4DFE8;}
	.st1{fill:#BACBD5;}
	.st2{fill:#61829E;}
	.st3{fill:#4E1F53;}
	.st4{fill:#F7F7F5;}
	.st5{fill:#D8AD8D;}
	.st6{fill:#3BB38A;}
	.st7{fill:#309971;}
	.st8{fill:#E8E8E8;}
	.st9{opacity:0.23;fill:#27AAE1;}
	.st10{fill:#F4F4F4;}
	.st11{fill:#ECC19C;}
	.st12{fill:#87A9BB;}
	.st13{fill:#F0545F;}
	.st14{fill:#FFD15C;}
	.st15{fill:#E0E0DE;}
	.st16{fill:#ABABAB;}
	.st17{fill:#A4314B;}
	.st18{fill:#EF3D6D;}
	.st19{fill:#F595A6;}
	.st20{fill:#F7DDA4;}
	.st21{fill:#3B9FB7;}
	.st22{fill:#6FD0F6;}
	.st23{fill:#A1DDF5;}
	.st24{fill:#51B3D0;}
</style>
<rect y="0.8" class="st0" width="1400" height="978.4"/>
<g>
	<g>
		<path class="st1" d="M373,490.5c0-180.2,146.6-326.8,326.8-326.8c157.4,0,292.5,112.1,321.3,266.6c2.7,14.7,16.8,24.3,31.5,21.6
			c14.7-2.7,24.3-16.8,21.6-31.5c-16-86.3-62.1-165-129.6-221.7c-33.6-28.2-71.3-50.2-112.3-65.4c-42.4-15.7-86.9-23.7-132.5-23.7
			c-51.4,0-101.3,10.1-148.2,29.9c-45.3,19.2-86.1,46.6-121,81.6c-35,35-62.4,75.7-81.6,121c-19.9,47-29.9,96.8-29.9,148.2
			c0,78.9,23.9,154.6,69.2,218.9c5.3,7.5,13.6,11.5,22.1,11.5c5.4,0,10.8-1.6,15.5-4.9c12.2-8.6,15.1-25.4,6.5-37.6
			C393.5,623.2,373,558.2,373,490.5z"/>
		<path class="st1" d="M1049.9,548.6c-14.5-3.5-29.1,5.3-32.7,19.8c-35.8,146.5-166.4,248.9-317.4,248.9
			c-73.8,0-143.4-24-201.4-69.4c-11.7-9.2-28.7-7.1-37.9,4.6c-9.2,11.7-7.1,28.7,4.6,37.9c32.8,25.7,69.3,45.7,108.4,59.4
			c40.5,14.2,83,21.4,126.3,21.4c43.8,0,86.7-7.4,127.6-21.9c39.5-14.1,76.3-34.5,109.2-60.7c65.9-52.4,113.2-126.1,133.1-207.5
			C1073.2,566.8,1064.4,552.1,1049.9,548.6z"/>
		<path class="st1" d="M699.8,188.6c-166.7,0-301.9,135.2-301.9,301.9S533,792.4,699.8,792.4s301.9-135.2,301.9-301.9
			S866.5,188.6,699.8,188.6z M526.3,658.3c-3.8,3.1-8.4,4.6-13,4.6c-6,0-11.9-2.6-16-7.6c-37.8-46.4-58.6-104.9-58.6-164.8
			c0-94.5,51.3-181.8,133.8-228c10-5.6,22.5-2,28.1,7.9c5.6,10,2,22.5-7.9,28.1C523.1,337.4,480,411,480,490.5
			c0,50.4,17.5,99.7,49.3,138.7C536.5,638,535.1,651.1,526.3,658.3z M828.9,454.7c-8.5-30.7-27.7-57.4-54.3-75.3
			c-9.5-6.4-11.9-19.2-5.6-28.7c6.4-9.5,19.2-11.9,28.7-5.6c34.7,23.4,59.9,58.4,71,98.6c4.2,15.2,6.3,30.9,6.3,46.8
			c0,83.6-59.5,156-141.4,172c-1.3,0.3-2.7,0.4-4,0.4c-9.7,0-18.3-6.8-20.2-16.7c-2.2-11.2,5.1-22,16.3-24.2
			c62.6-12.3,108-67.6,108-131.5C833.8,478.3,832.2,466.3,828.9,454.7z M699.8,356.5c-41.7,0-80.3,18.9-105.9,51.9
			c-4.1,5.2-10.2,8-16.3,8c-4.4,0-8.9-1.4-12.7-4.3c-9-7-10.6-20-3.6-29c33.5-43.1,84-67.8,138.5-67.8c11.4,0,20.7,9.2,20.7,20.7
			S711.2,356.5,699.8,356.5z M660.8,618.7c10.9,3.3,17.1,14.9,13.8,25.8c-2.7,8.9-10.9,14.7-19.8,14.7c-2,0-4-0.3-6-0.9
			c-35.2-10.7-66.9-32.9-89.1-62.4c-23-30.6-35.2-67-35.2-105.3c0-11.1,1-22.2,3.1-33c2.1-11.2,12.9-18.6,24.2-16.4
			c11.2,2.1,18.6,13,16.4,24.2c-1.6,8.3-2.4,16.8-2.4,25.3C565.8,549.9,603.9,601.5,660.8,618.7z M824.3,720.1
			c-38,20.6-81,31.5-124.5,31.5c-57.1,0-111.4-18.1-156.9-52.4c-9.1-6.9-10.9-19.8-4.1-28.9c6.9-9.1,19.8-10.9,28.9-4.1
			c38.3,28.8,84,44.1,132,44.1c36.6,0,72.8-9.2,104.8-26.5c10-5.4,22.6-1.7,28,8.3C838,702.1,834.3,714.6,824.3,720.1z M896.7,662
			c-4.1,4.7-9.8,7.1-15.6,7.1c-4.8,0-9.6-1.7-13.6-5.1c-8.6-7.5-9.5-20.5-2-29.1c34.8-40,54-91.2,54-144.3
			c0-121.2-98.6-219.8-219.8-219.8c-11.4,0-20.7-9.2-20.7-20.7s9.2-20.7,20.7-20.7c69.7,0,135.3,27.2,184.6,76.5
			c49.3,49.3,76.5,114.9,76.5,184.6C960.9,553.6,938.1,614.5,896.7,662z"/>
	</g>
</g>
<g>
	<g>
		<path class="st2" d="M853.4,772.3c-60.2,0-109.1-48.9-109.1-109.1v-63h54v63c0,30.4,24.7,55.1,55.1,55.1
			c30.4,0,55.1-24.7,55.1-55.1V507h54v156.2C962.5,723.4,913.5,772.3,853.4,772.3z"/>
		<path class="st3" d="M853.4,774.4c-61.3,0-111.2-49.9-111.2-111.2v-63c0-1.2,0.9-2.1,2.1-2.1h54c1.2,0,2.1,0.9,2.1,2.1v63
			c0,29.2,23.8,53,53,53c29.2,0,53-23.8,53-53V507c0-1.2,0.9-2.1,2.1-2.1h54c1.2,0,2.1,0.9,2.1,2.1v156.2
			C964.6,724.5,914.7,774.4,853.4,774.4z M746.4,602.3v60.9c0,59,48,107,107,107c59,0,107-48,107-107V509.1h-49.8v154.1
			c0,31.5-25.7,57.2-57.2,57.2c-31.5,0-57.2-25.7-57.2-57.2v-60.9H746.4z"/>
		<g>
			<path class="st3" d="M775.1,689.1c-0.4,0-0.9-0.3-1-0.7c-2.6-8.1-3.9-16.6-3.9-25.2v-63c0-0.6,0.5-1.1,1.1-1.1
				c0.6,0,1.1,0.5,1.1,1.1v63c0,8.4,1.3,16.6,3.8,24.5c0.2,0.6-0.1,1.2-0.7,1.3C775.3,689.1,775.2,689.1,775.1,689.1z"/>
			<path class="st3" d="M853.4,746.4c-31.2,0-59.5-17.2-73.8-44.9c-0.3-0.5-0.1-1.2,0.5-1.4c0.5-0.3,1.2-0.1,1.4,0.5
				c14,27,41.6,43.7,72,43.7c10.4,0,20.5-1.9,30.1-5.8c0.5-0.2,1.2,0,1.4,0.6c0.2,0.5,0,1.2-0.6,1.4
				C874.4,744.4,864,746.4,853.4,746.4z"/>
			<path class="st3" d="M900.5,731.5c-0.3,0-0.7-0.2-0.9-0.5c-0.3-0.5-0.2-1.1,0.3-1.5c2.6-1.8,5.1-3.8,7.5-5.9
				c0.4-0.4,1.1-0.4,1.5,0.1c0.4,0.4,0.4,1.1-0.1,1.5c-2.4,2.2-5,4.2-7.7,6.1C901,731.4,900.7,731.5,900.5,731.5z"/>
			<path class="st3" d="M918.4,714.4c-0.2,0-0.5-0.1-0.6-0.2c-0.5-0.4-0.5-1-0.2-1.5c11-14.3,16.8-31.4,16.8-49.5
				c0-0.6,0.5-1.1,1.1-1.1c0.6,0,1.1,0.5,1.1,1.1c0,18.6-6,36.1-17.3,50.8C919,714.2,918.7,714.4,918.4,714.4z"/>
			<path class="st3" d="M935.5,618.7c-0.6,0-1.1-0.5-1.1-1.1v-61.4c0-0.6,0.5-1.1,1.1-1.1c0.6,0,1.1,0.5,1.1,1.1v61.4
				C936.5,618.3,936,618.7,935.5,618.7z"/>
			<path class="st3" d="M935.5,540.3c-0.6,0-1.1-0.5-1.1-1.1v-12.7c0-0.6,0.5-1.1,1.1-1.1c0.6,0,1.1,0.5,1.1,1.1v12.7
				C936.5,539.9,936,540.3,935.5,540.3z"/>
		</g>
		<g>
			<rect x="913.2" y="483.7" class="st4" width="44.5" height="23.3"/>
			<path class="st3" d="M957.7,509.1h-44.5c-1.2,0-2.1-0.9-2.1-2.1v-23.3c0-1.2,0.9-2.1,2.1-2.1h44.5c1.2,0,2.1,0.9,2.1,2.1V507
				C959.8,508.1,958.9,509.1,957.7,509.1z M915.3,504.9h40.3v-19.1h-40.3V504.9z"/>
		</g>
		<g>
			<g>
				<path class="st5" d="M916.6,406.1l37.6-36.6l0,0c7.4,6.4,8.3,17.5,2.2,25.1L936.7,419L916.6,406.1z"/>
				<path class="st3" d="M936.7,421.2c-0.4,0-0.8-0.1-1.1-0.3l-20.1-12.9c-0.5-0.3-0.9-0.9-1-1.6s0.2-1.3,0.6-1.7l37.6-36.6
					c0.8-0.8,2-0.8,2.9-0.1c8.3,7.2,9.3,19.5,2.5,28.1l-19.7,24.4C937.9,420.9,937.3,421.2,936.7,421.2z M920,405.8l16.3,10.5
					l18.5-22.9c5-6.2,4.7-15.1-0.6-20.9L920,405.8z"/>
			</g>
			<g>
				<g>
					<rect x="952.4" y="366.2" class="st6" width="20.2" height="83"/>
					<rect x="962.5" y="366.2" class="st7" width="10.1" height="83"/>
					<path class="st3" d="M972.6,451.3h-20.2c-1.2,0-2.1-0.9-2.1-2.1v-83c0-1.2,0.9-2.1,2.1-2.1h20.2c1.2,0,2.1,0.9,2.1,2.1v83
						C974.7,450.3,973.8,451.3,972.6,451.3z M954.5,447.1h16v-78.8h-16V447.1z"/>
				</g>
				<g>
					<rect x="956.8" y="354.5" class="st8" width="11.4" height="11.7"/>
					<path class="st3" d="M968.2,368.3h-11.4c-1.2,0-2.1-0.9-2.1-2.1v-11.7c0-1.2,0.9-2.1,2.1-2.1h11.4c1.2,0,2.1,0.9,2.1,2.1v11.7
						C970.3,367.3,969.3,368.3,968.2,368.3z M958.9,364h7.1v-7.4h-7.1V364z"/>
				</g>
				<g>
					<circle class="st9" cx="962.5" cy="307.4" r="47.1"/>
					<path class="st3" d="M962.5,356.6c-27.1,0-49.2-22.1-49.2-49.2c0-27.1,22.1-49.2,49.2-49.2c27.1,0,49.2,22.1,49.2,49.2
						C1011.7,334.5,989.6,356.6,962.5,356.6z M962.5,262.4c-24.8,0-45,20.2-45,45c0,24.8,20.2,45,45,45c24.8,0,45-20.2,45-45
						C1007.4,282.6,987.3,262.4,962.5,262.4z"/>
					<path class="st10" d="M927.7,305c-0.1,0-0.2,0-0.3,0c-1.2-0.1-2-1.2-1.8-2.4c1.4-10.7,7.3-20.2,16.3-26.2
						c1-0.7,2.3-0.4,2.9,0.6c0.6,1,0.4,2.3-0.6,2.9c-8,5.3-13.2,13.8-14.4,23.2C929.6,304.2,928.7,305,927.7,305z"/>
					<path class="st10" d="M950.1,276.7c-0.9,0-1.7-0.5-2-1.4c-0.4-1.1,0.1-2.3,1.2-2.7c1.9-0.7,4-1.3,6-1.7
						c1.1-0.2,2.3,0.5,2.5,1.7c0.2,1.1-0.5,2.3-1.7,2.5c-1.8,0.4-3.6,0.9-5.3,1.5C950.6,276.6,950.3,276.7,950.1,276.7z"/>
				</g>
			</g>
			<g>
				<path class="st11" d="M1013.8,437.3c-1.2-4.3-5.7-6.7-9.9-5.5l4.5-1.3c4.3-1.2,6.7-5.7,5.5-9.9l0,0c-1.2-4.3-5.7-6.7-9.9-5.5
					l3-0.9c4.3-1.2,6.7-5.7,5.5-9.9v0c-1.2-4.3-5.7-6.7-9.9-5.5l4.5-1.3c4.3-1.2,6.7-5.7,5.5-9.9l0,0c-1.2-4.3-5.7-6.7-9.9-5.5
					l-85.9,24.8l0,0l0,0v33.6v33.7v9.5h37.8v-9.5v-11.3l53.9-15.6C1012.6,446,1015,441.6,1013.8,437.3L1013.8,437.3z"/>
				<path class="st3" d="M954.4,485.8h-37.8c-1.2,0-2.1-0.9-2.1-2.1v-76.8c0-0.7,0.4-1.4,1-1.8c0.2-0.1,0.4-0.2,0.7-0.3l16.6-4.8
					c1.1-0.3,2.3,0.3,2.6,1.4c0.3,1.1-0.3,2.3-1.4,2.6l-15.2,4.4v73.1h33.5v-18.7c0-0.9,0.6-1.8,1.5-2l53.9-15.6
					c3.1-0.9,5-4.2,4.1-7.3c-0.9-3.1-4.2-5-7.3-4.1l0,0c-1.1,0.3-2.3-0.3-2.6-1.5c-0.3-1.1,0.3-2.3,1.5-2.6c0,0,0,0,0,0l4.5-1.3
					c3.1-0.9,5-4.2,4.1-7.3c-0.4-1.5-1.4-2.8-2.8-3.5c-1.4-0.8-3-0.9-4.5-0.5l0,0c-1.1,0.3-2.3-0.3-2.6-1.5
					c-0.3-1.1,0.3-2.3,1.5-2.6l3-0.9c1.5-0.4,2.8-1.4,3.5-2.8c0.8-1.4,0.9-3,0.5-4.5c-0.4-1.5-1.4-2.8-2.8-3.5
					c-1.4-0.8-3-0.9-4.5-0.5l0,0c0,0,0,0,0,0c-1.1,0.3-2.3-0.3-2.6-1.5c-0.3-1.1,0.3-2.3,1.5-2.6h0c0,0,0,0,0,0l4.5-1.3
					c3.1-0.9,5-4.2,4.1-7.3c-0.4-1.5-1.4-2.8-2.8-3.5s-3-0.9-4.5-0.5l-56.8,16.4c-1.1,0.3-2.3-0.3-2.6-1.4c-0.3-1.1,0.3-2.3,1.4-2.6
					l56.8-16.4c2.6-0.7,5.4-0.4,7.7,0.9c2.4,1.3,4.1,3.5,4.8,6.1c0.7,2.6,0.4,5.4-0.9,7.7c-0.8,1.4-1.9,2.6-3.1,3.5
					c1.9,1.3,3.3,3.3,4,5.6c1.1,3.9-0.2,7.9-3.1,10.4c2.2,1.3,3.8,3.4,4.5,5.9c0.7,2.6,0.4,5.4-0.9,7.7c-0.8,1.4-1.9,2.6-3.2,3.5
					c1.9,1.3,3.3,3.2,4,5.5c1.5,5.4-1.6,11-7,12.6l-52.4,15.2v19.2C956.5,484.8,955.5,485.8,954.4,485.8z"/>
			</g>
		</g>
	</g>
	<g>
		<path class="st12" d="M507.7,765.7l-4,1.4l1.7,7.9l4.3-0.4c1.2,2.1,2.8,4,4.9,5.4l-0.8,4.2l7.7,2.5l1.8-3.9c2.5,0,4.9-0.5,7.1-1.6
			l3.3,2.8l6-5.5l-2.4-3.5c0.6-1,1.1-2.1,1.5-3.3s0.6-2.4,0.7-3.6l4-1.4l-1.7-7.9l-4.3,0.4c-1.2-2.1-2.8-4-4.9-5.4l0.8-4.2l-7.7-2.5
			l-1.8,3.9c-2.5,0-4.9,0.5-7.1,1.6l-3.3-2.8l-6,5.5l2.4,3.5c-0.6,1-1.1,2.1-1.5,3.3C508,763.3,507.8,764.5,507.7,765.7z
			 M515.6,765.3c1.1-5.1,6.5-7.8,11.2-5.8c3.5,1.5,5.5,5.4,4.7,9.1c-1.1,5.1-6.5,7.8-11.2,5.8C516.8,772.9,514.8,769,515.6,765.3z"
			/>
		<path class="st12" d="M525.7,812.3l-5.4,4.1l6.5,11.2l6.3-2.6c2.8,2.6,6.2,4.7,10,5.8l0.9,6.7h13l0.9-6.7c3.8-1.1,7.2-3.2,10-5.8
			l6.3,2.6l6.5-11.2l-5.4-4.1c0.4-1.9,0.7-3.8,0.7-5.8s-0.2-3.9-0.7-5.8l5.4-4.1l-6.5-11.2l-6.3,2.6c-2.8-2.6-6.2-4.7-10-5.8
			l-0.9-6.7h-13l-0.9,6.7c-3.8,1.1-7.2,3.2-10,5.8l-6.3-2.6l-6.5,11.2l5.4,4.1c-0.4,1.9-0.7,3.8-0.7,5.8
			C525.1,808.5,525.3,810.5,525.7,812.3z M537.6,807.8c-0.8-8.2,6-15,14.2-14.2c6.1,0.6,11,5.5,11.6,11.6c0.8,8.2-6,15-14.2,14.2
			C543.1,818.8,538.2,813.9,537.6,807.8z"/>
	</g>
	<g>
		<g>
			<path class="st4" d="M819.6,647.8H579.9c-9.6,0-17.4-7.8-17.4-17.4V350.6c0-9.6,7.8-17.4,17.4-17.4h239.7
				c9.6,0,17.4,7.8,17.4,17.4v279.8C837.1,640,829.3,647.8,819.6,647.8z"/>
			<path class="st3" d="M819.6,649.9H579.9c-10.8,0-19.6-8.8-19.6-19.6V350.6c0-10.8,8.8-19.6,19.6-19.6h239.7
				c10.8,0,19.6,8.8,19.6,19.6v279.8C839.2,641.2,830.4,649.9,819.6,649.9z M579.9,335.3c-8.4,0-15.3,6.9-15.3,15.3v279.8
				c0,8.4,6.9,15.3,15.3,15.3h239.7c8.4,0,15.3-6.9,15.3-15.3V350.6c0-8.4-6.9-15.3-15.3-15.3H579.9z"/>
			<path class="st2" d="M819.6,333.2H579.9c-9.6,0-17.4,7.8-17.4,17.4v37.3h274.6v-37.3C837.1,341,829.3,333.2,819.6,333.2z"/>
			<path class="st3" d="M837.1,390.1H562.5c-1.2,0-2.1-0.9-2.1-2.1v-37.3c0-10.8,8.8-19.6,19.6-19.6h239.7
				c10.8,0,19.6,8.8,19.6,19.6v37.3C839.2,389.1,838.2,390.1,837.1,390.1z M564.6,385.8H835v-35.2c0-8.4-6.9-15.3-15.3-15.3H579.9
				c-8.4,0-15.3,6.9-15.3,15.3V385.8z"/>
			<circle class="st13" cx="590" cy="360.6" r="9.6"/>
			<circle class="st14" cx="619" cy="360.6" r="9.6"/>
			<circle class="st6" cx="648" cy="360.6" r="9.6"/>
			<path class="st3" d="M590,372.3c-6.5,0-11.7-5.3-11.7-11.7c0-6.5,5.3-11.7,11.7-11.7c6.5,0,11.7,5.2,11.7,11.7
				C601.7,367,596.5,372.3,590,372.3z M590,353.1c-4.1,0-7.5,3.3-7.5,7.5c0,4.1,3.3,7.5,7.5,7.5c4.1,0,7.5-3.3,7.5-7.5
				C597.5,356.4,594.1,353.1,590,353.1z"/>
			<path class="st3" d="M619,372.3c-6.5,0-11.7-5.3-11.7-11.7c0-6.5,5.2-11.7,11.7-11.7c6.5,0,11.7,5.2,11.7,11.7
				C630.7,367,625.5,372.3,619,372.3z M619,353.1c-4.1,0-7.5,3.3-7.5,7.5c0,4.1,3.3,7.5,7.5,7.5c4.1,0,7.5-3.3,7.5-7.5
				C626.5,356.4,623.1,353.1,619,353.1z"/>
			<path class="st3" d="M648,372.3c-6.5,0-11.7-5.3-11.7-11.7c0-6.5,5.3-11.7,11.7-11.7s11.7,5.2,11.7,11.7
				C659.7,367,654.5,372.3,648,372.3z M648,353.1c-4.1,0-7.5,3.3-7.5,7.5c0,4.1,3.3,7.5,7.5,7.5c4.1,0,7.5-3.3,7.5-7.5
				C655.5,356.4,652.1,353.1,648,353.1z"/>
			<rect x="562.5" y="387.9" class="st15" width="274.6" height="65.2"/>
			<path class="st3" d="M837.1,455.3H562.5c-1.2,0-2.1-0.9-2.1-2.1v-65.2c0-1.2,0.9-2.1,2.1-2.1h274.6c1.2,0,2.1,0.9,2.1,2.1v65.2
				C839.2,454.3,838.2,455.3,837.1,455.3z M564.6,451H835v-61H564.6V451z"/>
			<rect x="610.1" y="400.4" class="st4" width="179.4" height="40.3"/>
			<path class="st3" d="M789.5,442.8H610.1c-1.2,0-2.1-0.9-2.1-2.1v-40.3c0-1.2,0.9-2.1,2.1-2.1h179.4c1.2,0,2.1,0.9,2.1,2.1v40.3
				C791.6,441.9,790.6,442.8,789.5,442.8z M612.2,438.6h175.2v-36H612.2V438.6z"/>
			<g>
				<path class="st3" d="M588.7,434.9c-6.5,0-11.8-5.3-11.8-11.8c0-6.5,5.3-11.8,11.8-11.8c1.2,0,2.1,0.9,2.1,2.1s-0.9,2.1-2.1,2.1
					c-4.2,0-7.6,3.4-7.6,7.6s3.4,7.6,7.6,7.6s7.6-3.4,7.6-7.6c0-1.2,0.9-2.1,2.1-2.1s2.1,0.9,2.1,2.1
					C600.5,429.6,595.3,434.9,588.7,434.9z"/>
				<path class="st3" d="M588.1,420.9c-0.4,0-0.8-0.1-1.2-0.4c-1-0.7-1.2-2-0.6-2.9l2.8-4.1l-3.3-3.7c-0.8-0.9-0.7-2.2,0.2-3
					c0.9-0.8,2.2-0.7,3,0.2l4.4,5c0.6,0.7,0.7,1.8,0.2,2.6l-3.7,5.5C589.5,420.6,588.8,420.9,588.1,420.9z"/>
			</g>
			<rect x="639" y="407.6" class="st16" width="4.2" height="25.9"/>
			<path class="st3" d="M810.9,429.4l-6.5,3.2c-0.7,0.3-1.4-0.2-1.3-1l1-7.1c0-0.3-0.1-0.6-0.2-0.8l-5-5.2c-0.5-0.5-0.2-1.4,0.5-1.5
				l7.1-1.2c0.3,0,0.5-0.2,0.7-0.5l3.4-6.4c0.3-0.6,1.3-0.6,1.6,0l3.4,6.4c0.1,0.2,0.4,0.4,0.7,0.5l7.1,1.2c0.7,0.1,1,1,0.5,1.5
				l-5,5.2c-0.2,0.2-0.3,0.5-0.2,0.8l1,7.1c0.1,0.7-0.6,1.3-1.3,1l-6.5-3.2C811.5,429.3,811.2,429.3,810.9,429.4z"/>
		</g>
		<g>
			<g>
				<path class="st3" d="M693.7,606c-33.2,0-60.3-27-60.3-60.3c0-33.2,27-60.3,60.3-60.3c33.2,0,60.3,27,60.3,60.3
					C754,578.9,726.9,606,693.7,606z M693.7,489.7c-30.9,0-56,25.1-56,56c0,30.9,25.1,56,56,56c30.9,0,56-25.1,56-56
					C749.7,514.8,724.6,489.7,693.7,489.7z"/>
				<path class="st3" d="M693.7,606c-15.1,0-26.9-26.5-26.9-60.3s11.8-60.3,26.9-60.3c15.1,0,26.9,26.5,26.9,60.3
					S708.8,606,693.7,606z M693.7,489.7c-12.3,0-22.6,25.7-22.6,56c0,30.4,10.4,56,22.6,56c12.3,0,22.6-25.7,22.6-56
					C716.3,515.3,706,489.7,693.7,489.7z"/>
				<path class="st3" d="M751.9,547.8H635.6c-1.2,0-2.1-0.9-2.1-2.1c0-1.2,0.9-2.1,2.1-2.1h116.3c1.2,0,2.1,0.9,2.1,2.1
					C754,546.9,753,547.8,751.9,547.8z"/>
				<path class="st3" d="M693.7,605.9c-1.2,0-2.1-0.9-2.1-2.1V487.5c0-1.2,0.9-2.1,2.1-2.1c1.2,0,2.1,0.9,2.1,2.1v116.2
					C695.8,604.9,694.9,605.9,693.7,605.9z"/>
				<g>
					<path class="st3" d="M742.9,518.4h-98.3c-1.2,0-2.1-0.9-2.1-2.1c0-1.2,0.9-2.1,2.1-2.1h98.3c1.2,0,2.1,0.9,2.1,2.1
						C745,517.5,744,518.4,742.9,518.4z"/>
					<path class="st3" d="M742.9,577.2h-98.3c-1.2,0-2.1-0.9-2.1-2.1c0-1.2,0.9-2.1,2.1-2.1h98.3c1.2,0,2.1,0.9,2.1,2.1
						C745,576.2,744,577.2,742.9,577.2z"/>
				</g>
			</g>
		</g>
	</g>
	<g>
		<g>
			<rect x="598.4" y="761.1" class="st17" width="111.5" height="78.9"/>
			<path class="st3" d="M709.9,842.2H598.4c-1.2,0-2.1-0.9-2.1-2.1v-78.9c0-1.2,0.9-2.1,2.1-2.1h111.5c1.2,0,2.1,0.9,2.1,2.1v78.9
				C712,841.2,711.1,842.2,709.9,842.2z M600.5,837.9h107.3v-74.7H600.5V837.9z"/>
			<g>
				<g>
					<g>
						<polygon class="st18" points="709.9,761.1 659.3,806.2 709.9,840.1 						"/>
					</g>
					<g>
						<polygon class="st18" points="598.4,761.1 649.1,806.2 598.4,840.1 						"/>
					</g>
				</g>
			</g>
			<g>
				<path class="st3" d="M709.9,842.2c-0.4,0-0.8-0.1-1.2-0.4l-50.7-33.9c-0.5-0.4-0.9-1-0.9-1.6c0-0.7,0.2-1.3,0.7-1.7l50.7-45
					c0.6-0.6,1.5-0.7,2.3-0.3c0.8,0.3,1.3,1.1,1.3,1.9v78.9c0,0.8-0.4,1.5-1.1,1.9C710.6,842.1,710.3,842.2,709.9,842.2z
					 M662.7,805.9l45.1,30.2v-70.2L662.7,805.9z"/>
				<path class="st3" d="M598.4,842.2c-0.3,0-0.7-0.1-1-0.3c-0.7-0.4-1.1-1.1-1.1-1.9v-78.9c0-0.8,0.5-1.6,1.3-1.9
					c0.8-0.3,1.7-0.2,2.3,0.3l50.7,45c0.5,0.4,0.8,1.1,0.7,1.7c0,0.7-0.4,1.3-0.9,1.6l-50.7,33.9
					C599.3,842.1,598.8,842.2,598.4,842.2z M600.5,765.9v70.2l45.1-30.2L600.5,765.9z"/>
			</g>
			<g>
				<path class="st19" d="M598.4,840.1h111.5l-48-39c-4.5-3.7-11-3.7-15.6,0L598.4,840.1z"/>
				<path class="st3" d="M709.9,842.2H598.4c-0.9,0-1.7-0.6-2-1.4c-0.3-0.8,0-1.8,0.7-2.4l48-39c5.3-4.3,12.9-4.3,18.2,0l48,39
					c0.7,0.6,1,1.5,0.7,2.4C711.6,841.6,710.8,842.2,709.9,842.2z M604.4,837.9H704l-43.3-35.2c-3.7-3-9.1-3-12.9,0L604.4,837.9z"/>
			</g>
			<g>
				<path class="st18" d="M709.9,761.1l-48-39c-4.5-3.7-11-3.7-15.6,0l-10.7,8.7V715c0-2.2-1.8-4-4-4c-2.2,0-4,1.8-4,4v13.1
					c0,2.2-1.8,4-4,4c-2.2,0-4-1.8-4-4v-3.6c0-2.2-1.8-4-4-4c-2.2,0-4,1.8-4,4v25.7l-13.4,10.9H709.9z"/>
				<path class="st3" d="M709.9,763.3H598.4c-0.9,0-1.7-0.6-2-1.4s0-1.8,0.7-2.4l12.6-10.3v-24.7c0-3.4,2.7-6.1,6.1-6.1
					s6.1,2.7,6.1,6.1v3.6c0,1,0.8,1.9,1.9,1.9s1.9-0.8,1.9-1.9V715c0-3.4,2.7-6.1,6.1-6.1s6.1,2.7,6.1,6.1v11.4l7.3-5.9
					c5.3-4.3,12.9-4.3,18.2,0l48,39c0.7,0.6,1,1.5,0.7,2.4S710.8,763.3,709.9,763.3z M604.4,759H704l-43.3-35.2c-3.7-3-9.1-3-12.9,0
					l-10.7,8.7c-0.6,0.5-1.5,0.6-2.2,0.3c-0.7-0.4-1.2-1.1-1.2-1.9V715c0-1-0.8-1.9-1.9-1.9s-1.9,0.8-1.9,1.9v13.1
					c0,3.4-2.7,6.1-6.1,6.1s-6.1-2.7-6.1-6.1v-3.6c0-1-0.8-1.9-1.9-1.9s-1.9,0.8-1.9,1.9v25.7c0,0.6-0.3,1.2-0.8,1.6L604.4,759z"/>
			</g>
		</g>
		<g>
			<g>
				<path class="st3" d="M610.3,706.1c-1.2,0-2.1-0.9-2.1-2.1V696c0-1.2,0.9-2.1,2.1-2.1c1.2,0,2.1,0.9,2.1,2.1v7.9
					C612.4,705.1,611.4,706.1,610.3,706.1z"/>
				<path class="st3" d="M610.3,689.5c-1.2,0-2.1-0.9-2.1-2.1v-13.6c0-1.2,0.9-2.1,2.1-2.1c1.2,0,2.1,0.9,2.1,2.1v13.6
					C612.4,688.5,611.4,689.5,610.3,689.5z"/>
				<path class="st3" d="M610.3,664.2c-1.2,0-2.1-0.9-2.1-2.1v-5.8c0-1.2,0.9-2.1,2.1-2.1c1.2,0,2.1,0.9,2.1,2.1v5.8
					C612.4,663.3,611.4,664.2,610.3,664.2z"/>
			</g>
			<g>
				<path class="st3" d="M637.6,706.1c-1.2,0-2.1-0.9-2.1-2.1V696c0-1.2,0.9-2.1,2.1-2.1c1.2,0,2.1,0.9,2.1,2.1v7.9
					C639.8,705.1,638.8,706.1,637.6,706.1z"/>
				<path class="st3" d="M637.6,689.5c-1.2,0-2.1-0.9-2.1-2.1v-31.1c0-1.2,0.9-2.1,2.1-2.1c1.2,0,2.1,0.9,2.1,2.1v31.1
					C639.8,688.5,638.8,689.5,637.6,689.5z"/>
			</g>
			<g>
				<path class="st3" d="M702.4,738.9c-1.2,0-2.1-0.9-2.1-2.1v-5.5c0-1.2,0.9-2.1,2.1-2.1c1.2,0,2.1,0.9,2.1,2.1v5.5
					C704.5,737.9,703.6,738.9,702.4,738.9z"/>
				<path class="st3" d="M702.4,717.1c-1.2,0-2.1-0.9-2.1-2.1v-41.6c0-1.2,0.9-2.1,2.1-2.1c1.2,0,2.1,0.9,2.1,2.1V715
					C704.5,716.1,703.6,717.1,702.4,717.1z"/>
				<path class="st3" d="M702.4,665c-1.2,0-2.1-0.9-2.1-2.1v-6.6c0-1.2,0.9-2.1,2.1-2.1c1.2,0,2.1,0.9,2.1,2.1v6.6
					C704.5,664.1,703.6,665,702.4,665z"/>
			</g>
		</g>
	</g>
	<g>
		<g>
			<path class="st4" d="M535.5,218h-2.1c0-24.4-19.8-44.2-44.2-44.2c-14.4,0-27.2,6.9-35.2,17.5c-3.2-1.3-6.7-2-10.4-2
				c-15.8,0-28.6,12.8-28.6,28.6c0,0.1,0,0.1,0,0.2c-13.2,1.5-23.4,12.7-23.4,26.3v0c0,14.6,11.9,26.5,26.5,26.5h117.4
				c14.6,0,26.5-11.9,26.5-26.5v0C562,229.8,550.1,218,535.5,218z"/>
			<path class="st3" d="M535.5,273.1H418.1c-15.8,0-28.6-12.8-28.6-28.6c0-13.9,10-25.7,23.4-28.1c0.9-16.2,14.3-29.1,30.7-29.1
				c3.3,0,6.6,0.5,9.7,1.6c8.8-10.9,21.8-17.1,35.9-17.1c24.8,0,45.1,19.6,46.2,44.2h0c15.8,0,28.6,12.8,28.6,28.6
				S551.2,273.1,535.5,273.1z M443.6,191.5c-14.6,0-26.5,11.9-26.5,26.5l0,0.2c0,1.1-0.8,2-1.9,2.1c-12.3,1.4-21.5,11.8-21.5,24.2
				c0,13.4,10.9,24.4,24.4,24.4h117.4c13.4,0,24.4-10.9,24.4-24.4s-10.9-24.4-24.4-24.4h-2.1c-1.2,0-2.1-0.9-2.1-2.1
				c0-23.2-18.9-42-42-42c-13.3,0-25.5,6.1-33.5,16.7c-0.6,0.8-1.6,1-2.5,0.7C450.1,192.1,446.9,191.5,443.6,191.5z"/>
			<g>
				<path class="st3" d="M554,246.6c-1.2,0-2.1-0.9-2.1-2.1c0-2.1-0.4-4.2-1.1-6.2c-0.4-1.1,0.2-2.3,1.3-2.7
					c1.1-0.4,2.3,0.2,2.7,1.3c0.9,2.4,1.4,5,1.4,7.6C556.2,245.6,555.2,246.6,554,246.6z"/>
				<path class="st3" d="M546.9,231.3c-0.5,0-1-0.2-1.4-0.5c-3.2-2.7-7.3-4.2-11.5-4.2c-1.2,0-2.1-0.9-2.1-2.1
					c0-1.2,0.9-2.1,2.1-2.1c5.2,0,10.2,1.8,14.2,5.2c0.9,0.8,1,2.1,0.3,3C548.1,231,547.5,231.3,546.9,231.3z"/>
				<path class="st3" d="M526.9,221.4c-1.2,0-2.1-0.9-2.1-2.1c0-3.8-0.6-7.5-1.8-11.1c-1.3-3.8-3.2-7.4-5.8-10.5
					c-0.7-0.9-0.6-2.2,0.3-3c0.9-0.7,2.2-0.6,3,0.3c2.8,3.6,5,7.5,6.5,11.8c1.4,4,2,8.2,2,12.4C529,220.4,528,221.4,526.9,221.4z"/>
				<path class="st3" d="M514.3,193.8c-0.5,0-1-0.2-1.4-0.5c-1.8-1.6-3.8-3-5.9-4.2c-1-0.6-1.4-1.9-0.8-2.9c0.6-1,1.9-1.4,2.9-0.8
					c2.4,1.3,4.6,2.9,6.7,4.7c0.9,0.8,1,2.1,0.2,3C515.5,193.5,514.9,193.8,514.3,193.8z"/>
			</g>
		</g>
		<g>
			<rect x="467.8" y="270.9" class="st13" width="18" height="8.3"/>
			<path class="st3" d="M485.8,281.4h-18c-1.2,0-2.1-0.9-2.1-2.1v-8.3c0-1.2,0.9-2.1,2.1-2.1h18c1.2,0,2.1,0.9,2.1,2.1v8.3
				C487.9,280.4,487,281.4,485.8,281.4z M469.9,277.1h13.8v-4.1h-13.8V277.1z"/>
		</g>
		<path class="st3" d="M547.9,372.4h-49.5c-13.1,0-23.8-10.7-23.8-23.8v-69.4c0-1.2,0.9-2.1,2.1-2.1c1.2,0,2.1,0.9,2.1,2.1v69.4
			c0,10.8,8.8,19.5,19.5,19.5h49.5c1.2,0,2.1,0.9,2.1,2.1C550,371.4,549,372.4,547.9,372.4z"/>
		<g>
			<path class="st3" d="M587.4,239.3c-1.2,0-2.1-0.9-2.1-2.1c0-23.8-19.3-43.1-43.1-43.1c-1.2,0-2.1-0.9-2.1-2.1
				c0-1.2,0.9-2.1,2.1-2.1c26.1,0,47.4,21.2,47.4,47.4C589.5,238.4,588.6,239.3,587.4,239.3z"/>
			<path class="st3" d="M601,239.3c-1.2,0-2.1-0.9-2.1-2.1c0-31.3-25.4-56.7-56.7-56.7c-1.2,0-2.1-0.9-2.1-2.1
				c0-1.2,0.9-2.1,2.1-2.1c33.6,0,60.9,27.3,60.9,60.9C603.1,238.4,602.1,239.3,601,239.3z"/>
			<path class="st3" d="M577,239.3c-1.2,0-2.1-0.9-2.1-2.1c0-18-14.7-32.7-32.7-32.7c-1.2,0-2.1-0.9-2.1-2.1c0-1.2,0.9-2.1,2.1-2.1
				c20.4,0,36.9,16.6,36.9,36.9C579.1,238.4,578.1,239.3,577,239.3z"/>
			<path class="st3" d="M568.9,239.3c-1.2,0-2.1-0.9-2.1-2.1c0-13.6-11.1-24.6-24.6-24.6c-1.2,0-2.1-0.9-2.1-2.1
				c0-1.2,0.9-2.1,2.1-2.1c15.9,0,28.9,13,28.9,28.9C571.1,238.4,570.1,239.3,568.9,239.3z"/>
		</g>
	</g>
	<g>
		<polygon class="st20" points="863,274.3 721.2,274.3 721.2,324.5 732.2,324.5 732.2,345.9 753.6,324.5 863,324.5 		"/>
		<path class="st3" d="M732.2,348c-0.3,0-0.5-0.1-0.8-0.2c-0.8-0.3-1.3-1.1-1.3-2v-19.3h-9c-1.2,0-2.1-0.9-2.1-2.1v-50.3
			c0-1.2,0.9-2.1,2.1-2.1H863c1.2,0,2.1,0.9,2.1,2.1v50.3c0,1.2-0.9,2.1-2.1,2.1H754.5l-20.8,20.8C733.3,347.8,732.8,348,732.2,348z
			 M723.3,322.4h9c1.2,0,2.1,0.9,2.1,2.1v16.3l17.8-17.8c0.4-0.4,0.9-0.6,1.5-0.6h107.2v-46H723.3V322.4z"/>
		<g>
			<path class="st3" d="M843.3,312.8H740.9c-1.2,0-2.1-0.9-2.1-2.1s0.9-2.1,2.1-2.1h102.4c1.2,0,2.1,0.9,2.1,2.1
				S844.5,312.8,843.3,312.8z"/>
			<path class="st3" d="M843.3,301.5H740.9c-1.2,0-2.1-0.9-2.1-2.1s0.9-2.1,2.1-2.1h102.4c1.2,0,2.1,0.9,2.1,2.1
				S844.5,301.5,843.3,301.5z"/>
			<path class="st3" d="M817.2,290.3h-76.4c-1.2,0-2.1-0.9-2.1-2.1c0-1.2,0.9-2.1,2.1-2.1h76.4c1.2,0,2.1,0.9,2.1,2.1
				C819.3,289.3,818.4,290.3,817.2,290.3z"/>
		</g>
	</g>
	<g>
		<g>
			<g>
				<polygon class="st21" points="441.4,358.9 455.4,458.7 446.5,460.5 				"/>
				<path class="st3" d="M446.5,462.6c-0.5,0-0.9-0.2-1.3-0.4c-0.5-0.4-0.8-1-0.8-1.6L439.3,359c-0.1-1.1,0.8-2.1,1.9-2.2
					c1.1-0.1,2.1,0.7,2.3,1.8l14,99.8c0.2,1.1-0.6,2.2-1.7,2.4l-8.9,1.8C446.8,462.6,446.6,462.6,446.5,462.6z M445.9,406.2
					l2.6,51.7l4.5-0.9L445.9,406.2z"/>
			</g>
			<path class="st22" d="M484.6,433h-39.5l-3.7-74.1h-87.5l-5.6,111.5H447l-1-19.6h18.7c1.6,0,3-1.3,3-3c0-1.6-1.3-3-3-3h-3.2
				c-1.6,0-3-1.3-3-3c0-1.6,1.3-3,3-3h23.1c1.6,0,3-1.3,3-3C487.6,434.3,486.3,433,484.6,433z"/>
			<path class="st3" d="M447,472.5h-98.6c-0.6,0-1.1-0.2-1.5-0.7s-0.6-1-0.6-1.6l5.6-111.5c0.1-1.1,1-2,2.1-2h87.5
				c1.1,0,2.1,0.9,2.1,2l3.6,72.1h37.5c2.8,0,5.1,2.3,5.1,5.1c0,2.8-2.3,5.1-5.1,5.1h-23.1c-0.5,0-0.8,0.4-0.8,0.8
				c0,0.5,0.4,0.8,0.8,0.8h3.2c2.8,0,5.1,2.3,5.1,5.1c0,2.8-2.3,5.1-5.1,5.1h-16.5l0.9,17.4c0,0.6-0.2,1.1-0.6,1.6
				S447.6,472.5,447,472.5z M350.6,468.2h94.2l-0.9-17.4c0-0.6,0.2-1.1,0.6-1.6c0.4-0.4,1-0.7,1.5-0.7h18.7c0.5,0,0.8-0.4,0.8-0.8
				c0-0.5-0.4-0.8-0.8-0.8h-3.2c-2.8,0-5.1-2.3-5.1-5.1c0-2.8,2.3-5.1,5.1-5.1h23.1c0.5,0,0.8-0.4,0.8-0.8c0-0.5-0.4-0.8-0.8-0.8
				h-39.5c-1.1,0-2.1-0.9-2.1-2l-3.6-72.1H356L350.6,468.2z"/>
			<path class="st3" d="M418.9,373.2c-1.2,0-2.1-0.9-2.1-2.1v-18c0-10.6-8.6-19.1-19.1-19.1s-19.1,8.6-19.1,19.1v18
				c0,1.2-0.9,2.1-2.1,2.1c-1.2,0-2.1-0.9-2.1-2.1v-18c0-12.9,10.5-23.4,23.4-23.4s23.4,10.5,23.4,23.4v18
				C421,372.3,420.1,373.2,418.9,373.2z"/>
		</g>
		<g>
			<path class="st18" d="M441.4,408.1L423.3,390c-4.5-4.5-4.5-11.7,0-16.2c4.5-4.5,11.7-4.5,16.2,0l2,2l2-2c4.5-4.5,11.7-4.5,16.2,0
				c4.5,4.5,4.5,11.7,0,16.2L441.4,408.1z"/>
			<path class="st3" d="M441.4,410.2c-0.5,0-1.1-0.2-1.5-0.6l-18.1-18.1c-2.6-2.6-4-6-4-9.6c0-3.6,1.4-7,4-9.6c2.6-2.6,6-4,9.6-4
				c0,0,0,0,0,0c3.6,0,7,1.4,9.6,4l0.5,0.5l0.5-0.5c2.6-2.6,6-4,9.6-4c0,0,0,0,0,0c3.6,0,7,1.4,9.6,4c2.6,2.6,4,6,4,9.6
				c0,3.6-1.4,7-4,9.6l-18.1,18.1C442.5,410,441.9,410.2,441.4,410.2z M431.3,372.6c-2.4,0-4.8,0.9-6.6,2.7
				c-1.8,1.8-2.7,4.1-2.7,6.6c0,2.5,1,4.8,2.7,6.6l16.6,16.6l16.6-16.6c3.6-3.6,3.7-9.6,0-13.2c-1.8-1.8-4.1-2.7-6.6-2.7
				c0,0,0,0,0,0c-2.5,0-4.8,1-6.6,2.7l-2,2c-0.8,0.8-2.2,0.8-3,0l-2-2C436.1,373.5,433.7,372.6,431.3,372.6z"/>
		</g>
		<g>
			<path class="st3" d="M534.7,434.3h-5.9c-1.2,0-2.1-0.9-2.1-2.1s0.9-2.1,2.1-2.1h5.9c1.2,0,2.1,0.9,2.1,2.1
				S535.8,434.3,534.7,434.3z"/>
			<path class="st3" d="M518.8,434.3h-20.6c-1.2,0-2.1-0.9-2.1-2.1s0.9-2.1,2.1-2.1h20.6c1.2,0,2.1,0.9,2.1,2.1
				S520,434.3,518.8,434.3z"/>
		</g>
		<g>
			<path class="st3" d="M531.7,450.4h-7.2c-1.2,0-2.1-0.9-2.1-2.1s0.9-2.1,2.1-2.1h7.2c1.2,0,2.1,0.9,2.1,2.1
				S532.9,450.4,531.7,450.4z"/>
			<path class="st3" d="M512.5,450.4h-31.6c-1.2,0-2.1-0.9-2.1-2.1s0.9-2.1,2.1-2.1h31.6c1.2,0,2.1,0.9,2.1,2.1
				S513.7,450.4,512.5,450.4z"/>
		</g>
	</g>
	<g>
		
			<ellipse transform="matrix(0.9835 -0.181 0.181 0.9835 -18.6868 112.9256)" class="st18" cx="609.3" cy="158.8" rx="10.7" ry="8.9"/>
		
			<ellipse transform="matrix(0.9835 -0.181 0.181 0.9835 -17.4445 119.8792)" class="st18" cx="648" cy="155.5" rx="10.7" ry="8.9"/>
		<path class="st3" d="M608.6,169.9c-5.9,0-10.9-3.6-11.9-8.7c-1.1-6,3.7-11.8,10.6-13.1c6.9-1.3,13.5,2.5,14.6,8.5
			c1.1,6-3.7,11.8-10.6,13.1C610.3,169.8,609.4,169.9,608.6,169.9z M610,152c-0.6,0-1.3,0.1-1.9,0.2h0c-4.6,0.9-7.9,4.5-7.2,8.2
			c0.7,3.7,5,5.9,9.6,5.1c4.6-0.9,7.9-4.5,7.2-8.2C617.1,154.1,613.8,152,610,152z M607.6,150.1L607.6,150.1L607.6,150.1z"/>
		<path class="st3" d="M647.3,166.6c-5.9,0-10.9-3.6-11.9-8.7c-1.1-6,3.7-11.8,10.6-13.1h0c6.9-1.3,13.5,2.5,14.6,8.5
			c1.1,6-3.7,11.8-10.6,13.1C649,166.5,648.1,166.6,647.3,166.6z M646.7,148.9c-4.6,0.9-7.9,4.5-7.2,8.2c0.7,3.7,5,5.9,9.6,5.1
			c4.6-0.9,7.9-4.5,7.2-8.2C655.7,150.3,651.4,148,646.7,148.9L646.7,148.9z"/>
		<path class="st3" d="M619.9,159c-1.2,0-2.1-0.9-2.1-2.1v-42.3c0-0.9,0.6-1.7,1.4-2l38.6-14c0.6-0.2,1.4-0.1,1.9,0.3
			c0.6,0.4,0.9,1,0.9,1.7v52.9c0,1.2-0.9,2.1-2.1,2.1c-1.2,0-2.1-0.9-2.1-2.1v-49.9L622,116.1v40.8C622,158.1,621.1,159,619.9,159z"
			/>
	</g>
	<g>
		<polygon class="st18" points="734,157.2 734,190.4 761.5,173.8 		"/>
		<path class="st3" d="M734,192.5c-0.4,0-0.7-0.1-1-0.3c-0.7-0.4-1.1-1.1-1.1-1.8v-33.1c0-0.8,0.4-1.5,1.1-1.8
			c0.7-0.4,1.5-0.4,2.1,0l27.4,16.6c0.6,0.4,1,1.1,1,1.8c0,0.7-0.4,1.4-1,1.8l-27.4,16.6C734.8,192.4,734.4,192.5,734,192.5z
			 M736.2,161v25.6l21.2-12.8L736.2,161z"/>
	</g>
	<g>
		<g>
			<path class="st20" d="M452.4,608.1h-71.3c-4.6,0-8.3,3.7-8.3,8.3v71.3c0,4.6,3.7,8.3,8.3,8.3h71.3c4.6,0,8.3-3.7,8.3-8.3v-71.3
				C460.7,611.8,457,608.1,452.4,608.1z"/>
			<path class="st3" d="M452.4,698.1h-71.3c-5.7,0-10.4-4.7-10.4-10.4v-71.3c0-5.7,4.7-10.4,10.4-10.4h71.3
				c5.7,0,10.4,4.7,10.4,10.4v71.3C462.8,693.4,458.2,698.1,452.4,698.1z M381.1,610.2c-3.4,0-6.2,2.8-6.2,6.2v71.3
				c0,3.4,2.8,6.2,6.2,6.2h71.3c3.4,0,6.2-2.8,6.2-6.2v-71.3c0-3.4-2.8-6.2-6.2-6.2H381.1z"/>
			<polygon class="st6" points="412.8,673.8 400,696 451.2,696 			"/>
			<path class="st16" d="M420.2,660.9l30.5-52.9h-17.1L382.9,696H400l12.8-22.2l38.4,22.2h1.2c4.6,0,8.3-3.7,8.3-8.3v-3.4
				L420.2,660.9z"/>
			<path class="st3" d="M452.4,698.1h-1.2c-0.4,0-0.7-0.1-1.1-0.3l-36.6-21.1L401.8,697c-0.4,0.7-1.1,1.1-1.8,1.1h-17.1
				c-0.8,0-1.5-0.4-1.8-1.1c-0.4-0.7-0.4-1.5,0-2.1l50.7-87.9c0.4-0.7,1.1-1.1,1.8-1.1h17.1c0.8,0,1.5,0.4,1.8,1.1
				c0.4,0.7,0.4,1.5,0,2.1l-29.5,51l38.7,22.3c0.7,0.4,1.1,1.1,1.1,1.8v3.4C462.8,693.4,458.2,698.1,452.4,698.1z M451.7,693.8h0.7
				c3.4,0,6.2-2.8,6.2-6.2v-2.1l-39.4-22.8c-0.5-0.3-0.8-0.7-1-1.3c-0.1-0.5-0.1-1.1,0.2-1.6l28.7-49.7h-12.2l-48.3,83.6h12.2
				l12.2-21.1c0.6-1,1.9-1.4,2.9-0.8L451.7,693.8z"/>
			<g>
				<path class="st18" d="M432.3,530.8c-17.8-17.8-46.7-17.8-64.6,0c-17.8,17.8-17.8,46.7,0,64.6l32.3,32.3l32.3-32.3
					C450.1,577.5,450.1,548.6,432.3,530.8z M386,549.1c7.7-7.7,20.2-7.7,28,0s7.7,20.2,0,28c-7.7,7.7-20.2,7.7-28,0
					C378.3,569.3,378.3,556.8,386,549.1z"/>
				<path class="st3" d="M400,629.8c-0.5,0-1.1-0.2-1.5-0.6l-32.3-32.3c-18.6-18.6-18.6-48.9,0-67.6c9-9,21-14,33.8-14
					c12.8,0,24.8,5,33.8,14l0,0l0,0c18.6,18.6,18.6,48.9,0,67.6l-32.3,32.3C401.1,629.6,400.5,629.8,400,629.8z M400,519.5
					c-11.6,0-22.6,4.5-30.8,12.8c-17,17-17,44.6,0,61.6l30.8,30.8l30.8-30.8c17-17,17-44.6,0-61.6l0,0
					C422.5,524.1,411.6,519.5,400,519.5z M400,585c-5.8,0-11.3-2.3-15.5-6.4c-4.1-4.1-6.4-9.6-6.4-15.5s2.3-11.3,6.4-15.5
					c4.1-4.1,9.6-6.4,15.5-6.4c5.8,0,11.3,2.3,15.5,6.4c4.1,4.1,6.4,9.6,6.4,15.5s-2.3,11.3-6.4,15.5C411.3,582.7,405.8,585,400,585
					z M400,545.4c-4.7,0-9.1,1.8-12.5,5.2l0,0c-6.9,6.9-6.9,18.1,0,25c3.3,3.3,7.8,5.2,12.5,5.2c4.7,0,9.1-1.8,12.5-5.2
					c6.9-6.9,6.9-18.1,0-25C409.1,547.3,404.7,545.4,400,545.4z M386,549.1L386,549.1L386,549.1z"/>
			</g>
		</g>
		<g>
			<path class="st3" d="M482.3,637.1h-21.6c-1.2,0-2.1-0.9-2.1-2.1c0-1.2,0.9-2.1,2.1-2.1h21.6c4.7,0,8.5-3.8,8.5-8.5V589
				c0-7,5.7-12.7,12.7-12.7h4.6c1.2,0,2.1,0.9,2.1,2.1c0,1.2-0.9,2.1-2.1,2.1h-4.6c-4.7,0-8.5,3.8-8.5,8.5v35.4
				C495,631.4,489.3,637.1,482.3,637.1z"/>
			<path class="st3" d="M524.1,580.5h-6.3c-1.2,0-2.1-0.9-2.1-2.1c0-1.2,0.9-2.1,2.1-2.1h6.3c1.2,0,2.1,0.9,2.1,2.1
				C526.2,579.6,525.3,580.5,524.1,580.5z"/>
			<path class="st3" d="M555,580.5h-18c-1.2,0-2.1-0.9-2.1-2.1c0-1.2,0.9-2.1,2.1-2.1h18c1.2,0,2.1,0.9,2.1,2.1
				C557.1,579.6,556.2,580.5,555,580.5z"/>
		</g>
	</g>
	<path class="st12" d="M461.7,474.1v12.7v33v12.7h51.8v-12.7v-33v-12.7H461.7z M484.6,477.4h6v6h-6V477.4z M468.2,477.4h6v6h-6
		V477.4z M474.2,529h-6v-6h6V529z M490.6,529h-6v-6h6V529z M507,529h-6v-6h6V529z M507,518.8h-38.8v-31.1H507V518.8z M507,483.4h-6
		v-6h6V483.4z"/>
	<g>
		<path class="st6" d="M879.7,180.9l18.1-31.4c2.5-4.4,1.5-9.7-2.2-11.9l-7.3-4.2c-3.8-2.2-8.9-0.4-11.4,4l-18.1,31.4
			c-1.7,2.9-1,6.4,1.5,7.8l12,6.9C874.7,185,878.1,183.8,879.7,180.9z"/>
		<path class="st3" d="M874.5,186.2c-1.2,0-2.3-0.3-3.3-0.9l-12-6.9c-1.7-1-2.9-2.7-3.3-4.8c-0.4-2,0-4.1,1.1-5.9l18.1-31.4
			c1.5-2.6,3.7-4.5,6.4-5.4c2.7-1,5.6-0.7,7.9,0.6l7.3,4.2c2.4,1.4,4,3.7,4.5,6.6c0.5,2.7,0,5.7-1.5,8.2L881.6,182l0,0
			C880,184.7,877.2,186.2,874.5,186.2z M884.8,134.7c-0.6,0-1.3,0.1-2,0.3c-1.7,0.6-3.1,1.8-4.1,3.5l-18.1,31.4c-0.6,1-0.8,2-0.6,3
			c0.2,0.9,0.6,1.5,1.2,1.9l12,6.9c1.4,0.8,3.5,0,4.6-1.9l18.1-31.4c1-1.7,1.3-3.6,1-5.3c-0.3-1.6-1.2-2.9-2.4-3.7l-7.3-4.2
			C886.5,134.9,885.7,134.7,884.8,134.7z M879.7,180.9L879.7,180.9L879.7,180.9z"/>
		<path class="st4" d="M866.3,180.1c-9.8-5.7-22.3-2.3-27.9,7.5l35.4,20.5C879.4,198.2,876,185.7,866.3,180.1z"/>
		<path class="st3" d="M873.8,210.1c-0.4,0-0.7-0.1-1.1-0.3l-35.4-20.5c-1-0.6-1.4-1.9-0.8-2.9c6.2-10.8,20.1-14.5,30.8-8.3l0,0
			c10.8,6.2,14.5,20.1,8.3,30.8c-0.3,0.5-0.7,0.8-1.3,1C874.1,210.1,873.9,210.1,873.8,210.1z M841.3,186.8l31.6,18.2
			c3.6-8.4,0.5-18.5-7.7-23.2l0,0C857.1,177.2,846.8,179.5,841.3,186.8z"/>
		<path class="st3" d="M871,164.2c-0.8,0-1.6-0.2-2.3-0.6l-5.1-2.9c-1-0.6-1.4-1.9-0.8-2.9l8.1-14c0.6-1,1.9-1.4,2.9-0.8l5.1,2.9
			l0,0c2.2,1.3,3,4.1,1.7,6.4l-5.6,9.6C874.1,163.3,872.6,164.2,871,164.2z M867.5,158l3.2,1.9c0.2,0.1,0.5,0,0.6-0.2l5.6-9.6
			c0.1-0.2,0-0.5-0.2-0.6l-3.2-1.9L867.5,158z"/>
		<g>
			<g>
				<g>
					
						<rect x="809.2" y="91.4" transform="matrix(0.5 -0.866 0.866 0.5 302.8857 780.6092)" class="st12" width="36.5" height="73.1"/>
					<path class="st3" d="M850,164.2c-0.4,0-0.7-0.1-1.1-0.3l-63.3-36.6c-1-0.6-1.4-1.9-0.8-2.9l18.3-31.6c0.3-0.5,0.7-0.8,1.3-1
						c0.5-0.1,1.1-0.1,1.6,0.2l63.3,36.6c1,0.6,1.4,1.9,0.8,2.9l-18.3,31.6c-0.3,0.5-0.7,0.8-1.3,1
						C850.4,164.2,850.2,164.2,850,164.2z M789.6,124.8l59.7,34.4l16.1-28l-59.7-34.4L789.6,124.8z"/>
					<path class="st3" d="M859.1,148.4c-0.4,0-0.7-0.1-1.1-0.3l-63.3-36.6c-1-0.6-1.4-1.9-0.8-2.9c0.6-1,1.9-1.4,2.9-0.8l63.3,36.6
						c1,0.6,1.4,1.9,0.8,2.9C860.6,148,859.9,148.4,859.1,148.4z"/>
					<g>
						<path class="st3" d="M838.4,157.5c-0.4,0-0.7-0.1-1.1-0.3c-1-0.6-1.4-1.9-0.8-2.9l18.3-31.6c0.6-1,1.9-1.4,2.9-0.8
							c1,0.6,1.4,1.9,0.8,2.9l-18.3,31.6C839.8,157.1,839.1,157.5,838.4,157.5z"/>
						<path class="st3" d="M825,149.8c-0.4,0-0.7-0.1-1.1-0.3c-1-0.6-1.4-1.9-0.8-2.9l18.3-31.6c0.6-1,1.9-1.4,2.9-0.8
							c1,0.6,1.4,1.9,0.8,2.9l-18.3,31.6C826.5,149.4,825.8,149.8,825,149.8z"/>
						<path class="st3" d="M811.7,142.1c-0.4,0-0.7-0.1-1.1-0.3c-1-0.6-1.4-1.9-0.8-2.9l18.3-31.6c0.6-1,1.9-1.4,2.9-0.8
							c1,0.6,1.4,1.9,0.8,2.9L813.5,141C813.1,141.7,812.4,142.1,811.7,142.1z"/>
						<path class="st3" d="M798.3,134.4c-0.4,0-0.7-0.1-1.1-0.3c-1-0.6-1.4-1.9-0.8-2.9l18.3-31.6c0.6-1,1.9-1.4,2.9-0.8
							c1,0.6,1.4,1.9,0.8,2.9l-18.3,31.6C799.7,134,799,134.4,798.3,134.4z"/>
					</g>
				</g>
				<path class="st3" d="M868.7,153.9c-0.4,0-0.7-0.1-1.1-0.3l-9.5-5.5c-1-0.6-1.4-1.9-0.8-2.9c0.6-1,1.9-1.4,2.9-0.8l9.5,5.5
					c1,0.6,1.4,1.9,0.8,2.9C870.1,153.5,869.4,153.9,868.7,153.9z"/>
			</g>
			<g>
				<g>
					
						<rect x="912.5" y="151.1" transform="matrix(0.5 -0.866 0.866 0.5 302.8857 899.8685)" class="st12" width="36.5" height="73.1"/>
					<path class="st3" d="M953.3,223.8c-0.4,0-0.7-0.1-1.1-0.3L888.9,187c-0.5-0.3-0.8-0.7-1-1.3c-0.1-0.5-0.1-1.1,0.2-1.6
						l18.3-31.6c0.3-0.5,0.7-0.8,1.3-1c0.5-0.1,1.1-0.1,1.6,0.2l63.3,36.6c0.5,0.3,0.8,0.7,1,1.3c0.1,0.5,0.1,1.1-0.2,1.6
						l-18.3,31.6C954.7,223.5,954,223.8,953.3,223.8z M892.8,184.4l59.7,34.4l16.1-28L909,156.4L892.8,184.4z"/>
					<path class="st3" d="M962.4,208c-0.4,0-0.7-0.1-1.1-0.3L898,171.2c-1-0.6-1.4-1.9-0.8-2.9c0.6-1,1.9-1.4,2.9-0.8l63.3,36.6
						c1,0.6,1.4,1.9,0.8,2.9C963.9,207.6,963.1,208,962.4,208z"/>
					<g>
						<path class="st3" d="M901.6,194c-0.4,0-0.7-0.1-1.1-0.3c-1-0.6-1.4-1.9-0.8-2.9l18.3-31.6c0.6-1,1.9-1.4,2.9-0.8
							c1,0.6,1.4,1.9,0.8,2.9l-18.3,31.6C903,193.6,902.3,194,901.6,194z"/>
						<path class="st3" d="M914.9,201.7c-0.4,0-0.7-0.1-1.1-0.3c-1-0.6-1.4-1.9-0.8-2.9l18.3-31.6c0.6-1,1.9-1.4,2.9-0.8
							c1,0.6,1.4,1.9,0.8,2.9l-18.3,31.6C916.4,201.3,915.7,201.7,914.9,201.7z"/>
						<path class="st3" d="M928.3,209.4c-0.4,0-0.7-0.1-1.1-0.3c-1-0.6-1.4-1.9-0.8-2.9l18.3-31.6c0.6-1,1.9-1.4,2.9-0.8
							c1,0.6,1.4,1.9,0.8,2.9l-18.3,31.6C929.7,209,929,209.4,928.3,209.4z"/>
						<path class="st3" d="M941.7,217.1c-0.4,0-0.7-0.1-1.1-0.3c-1-0.6-1.4-1.9-0.8-2.9l18.3-31.6c0.6-1,1.9-1.4,2.9-0.8
							c1,0.6,1.4,1.9,0.8,2.9l-18.3,31.6C943.1,216.8,942.4,217.1,941.7,217.1z"/>
					</g>
				</g>
				<path class="st3" d="M899.1,171.5c-0.4,0-0.7-0.1-1.1-0.3l-9.5-5.5c-1-0.6-1.4-1.9-0.8-2.9c0.6-1,1.9-1.4,2.9-0.8l9.5,5.5
					c1,0.6,1.4,1.9,0.8,2.9C900.5,171.1,899.8,171.5,899.1,171.5z"/>
			</g>
		</g>
		<path class="st3" d="M848.9,212.3c-0.4,0-0.7-0.1-1.1-0.3c-0.8-0.5-1.2-1.5-1-2.4l4-14.2c0.3-1.1,1.5-1.8,2.6-1.5
			c1.1,0.3,1.8,1.5,1.5,2.6l-1.7,6.3l4.5-4.6c0.8-0.8,2.2-0.8,3,0c0.8,0.8,0.8,2.2,0,3l-10.3,10.5C850,212,849.5,212.3,848.9,212.3z
			"/>
	</g>
	<path class="st12" d="M842.2,798c-6.1-6.1-16.1-6.2-22.2,0l-2.7,2.7l-2.7-2.7c-6.1-6.1-16.1-6.1-22.2,0c-6.1,6.1-6.1,16.1,0,22.2
		l24.9,24.8l24.9-24.8C848.3,814.1,848.3,804.1,842.2,798z"/>
	<g>
		<g>
			
				<rect x="1010.3" y="518.8" transform="matrix(0.5 -0.866 0.866 0.5 65.3323 1178.2881)" class="st22" width="85.7" height="27.5"/>
			
				<rect x="1002.1" y="523.5" transform="matrix(0.5 -0.866 0.866 0.5 65.3323 1168.8101)" class="st23" width="85.7" height="8.6"/>
			<rect x="1018.5" y="533" transform="matrix(0.5 -0.866 0.866 0.5 65.3323 1187.766)" class="st24" width="85.7" height="8.6"/>
			<path class="st3" d="M1043.6,578.7c-0.4,0-0.7-0.1-1.1-0.3l-23.8-13.8c-0.5-0.3-0.8-0.7-1-1.3c-0.1-0.5-0.1-1.1,0.2-1.6
				l42.8-74.2c0.3-0.5,0.7-0.8,1.3-1c0.5-0.1,1.1-0.1,1.6,0.2l23.8,13.8c1,0.6,1.4,1.9,0.8,2.9l-42.8,74.2
				C1045,578.3,1044.3,578.7,1043.6,578.7z M1022.6,562l20.2,11.7l40.7-70.5l-20.2-11.7L1022.6,562z"/>
			<polygon class="st20" points="1019.9,590 1019.8,562.8 1043.6,576.5 			"/>
			<path class="st3" d="M1019.9,592.1c-0.4,0-0.7-0.1-1.1-0.3c-0.7-0.4-1.1-1.1-1.1-1.8l-0.2-27.2c0-0.8,0.4-1.5,1.1-1.8
				c0.7-0.4,1.5-0.4,2.1,0l23.8,13.8c0.7,0.4,1.1,1.1,1.1,1.8c0,0.8-0.4,1.5-1.1,1.8l-23.7,13.4
				C1020.7,592,1020.3,592.1,1019.9,592.1z M1021.9,566.5l0.1,19.9l17.3-9.8L1021.9,566.5z"/>
			<path class="st3" d="M1036.2,573.8c-0.3,0-0.5-0.1-0.8-0.2l-9-5.2c-0.4-0.2-0.6-0.6-0.7-1c-0.1-0.4-0.1-0.8,0.2-1.2l42.8-74.2
				c0.2-0.4,0.6-0.6,1-0.7c0.4-0.1,0.8-0.1,1.2,0.2l9,5.2c0.8,0.4,1,1.4,0.6,2.2l-42.8,74.2C1037.3,573.6,1036.7,573.8,1036.2,573.8
				z M1029.4,566.5l6.2,3.6l41.2-71.4l-6.2-3.6L1029.4,566.5z"/>
			<polygon class="st2" points="1029.7,584.4 1019.9,578.7 1019.9,590 			"/>
			<path class="st3" d="M1019.9,592.1c-0.4,0-0.7-0.1-1.1-0.3c-0.7-0.4-1.1-1.1-1.1-1.8l-0.1-11.3c0-0.8,0.4-1.5,1.1-1.8
				c0.7-0.4,1.5-0.4,2.1,0l9.9,5.7c0.7,0.4,1.1,1.1,1.1,1.8c0,0.8-0.4,1.5-1.1,1.8l-9.8,5.6C1020.7,592,1020.3,592.1,1019.9,592.1z
				 M1022,582.4l0,3.9l3.4-1.9L1022,582.4z"/>
		</g>
		<g>
			<path class="st3" d="M980.1,592.1h-8.6c-1.2,0-2.1-0.9-2.1-2.1s0.9-2.1,2.1-2.1h8.6c1.2,0,2.1,0.9,2.1,2.1
				S981.3,592.1,980.1,592.1z"/>
			<path class="st3" d="M1035,592.1h-45.4c-1.2,0-2.1-0.9-2.1-2.1s0.9-2.1,2.1-2.1h45.4c1.2,0,2.1,0.9,2.1,2.1
				S1036.2,592.1,1035,592.1z"/>
		</g>
	</g>
</g>
</svg>
