<svg width="360" height="233" viewBox="0 0 360 233" fill="none" xmlns="http://www.w3.org/2000/svg">
<g clip-path="url(#clip0)">
<path d="M71 131L3 47V233H364V127C358.4 130.2 349.333 132 345.5 132.5C286.833 141.333 167.3 159.3 158.5 160.5C147.5 162 137.5 163 127.5 161.5C117.5 160 110.5 158 97.5 152.5C87.1 148.1 75.5 136.333 71 131Z" fill="white"/>
<path d="M94.4998 152.608C68.0002 155.608 39.5813 143.676 20.7942 119.861L-9.46019e-05 93.108" stroke="#0073B4"/>
<path d="M-0.000175184 64.6081L28.1251 100.22C34.4167 107.849 51.7 126.008 66.5 129.608" stroke="#B890FF"/>
<path d="M-1.50039 69.1081L26.1249 105.22C34.7499 117.016 57.7 140.908 80.5 142.108" stroke="#B890FF" stroke-width="2"/>
<path d="M364 144.608C306.3 153.48 244.366 164.774 186.67 173.654C175.946 175.306 151.3 175.408 138.5 162.608" stroke="#1CBBFF" stroke-width="2"/>
</g>
<defs>
<clipPath id="clip0">
<rect width="360" height="233" fill="white"/>
</clipPath>
</defs>
</svg>
