<svg width="360" height="233" viewBox="0 0 360 233" fill="none" xmlns="http://www.w3.org/2000/svg">
<g clip-path="url(#clip0)">
<path d="M290 131L358 47V233H-3V127C2.6 130.2 11.6667 132 15.5 132.5C74.1667 141.333 193.7 159.3 202.5 160.5C213.5 162 223.5 163 233.5 161.5C243.5 160 250.5 158 263.5 152.5C273.9 148.1 285.5 136.333 290 131Z" fill="white"/>
<path d="M266.5 152.608C293 155.608 321.419 143.676 340.206 119.861L361 93.108" stroke="#0073B4"/>
<path d="M361 64.6081L332.875 100.22C326.583 107.849 309.3 126.008 294.5 129.608" stroke="#B890FF"/>
<path d="M362.5 69.1081L334.875 105.22C326.25 117.016 303.3 140.908 280.5 142.108" stroke="#B890FF" stroke-width="2"/>
<path d="M-2.99992 144.608C54.6995 153.48 116.634 164.774 174.33 173.654C185.054 175.306 209.7 175.408 222.5 162.608" stroke="#1CBBFF" stroke-width="2"/>
</g>
<defs>
<clipPath id="clip0">
<rect width="360" height="233" fill="white"/>
</clipPath>
</defs>
</svg>
