<svg width="1440" height="1024" viewBox="0 0 1440 1024" fill="none" xmlns="http://www.w3.org/2000/svg">
<g clip-path="url(#clip0)">
<path d="M1435 825V169C1370.5 254 1253.08 448.5 1171 554.5C1097.5 649.417 995.833 660.167 957 655.5L659.5 635C613.167 630.667 499.9 620.8 417.5 616C314.5 610 310.5 609.5 243.5 581C189.9 558.2 147.833 503.833 133.5 479.5L-6.5 211.5V825H1435Z" fill="white"/>
<path d="M-7.5002 410.197C56.7536 507.797 58.593 511.965 122.831 609.57C159.164 664.75 221.297 696.676 285.824 693.296C399.957 687.31 581.837 677.772 695.974 671.803C713.982 671.702 757.5 666 787.5 644" stroke="#0073B4" stroke-width="3"/>
<path d="M1439 287.5C1389.12 391.087 1388.83 390.397 1338.93 493.988C1310.74 552.565 1253.6 590.725 1189.07 594.106L1132.5 594.106" stroke="#0073B4" stroke-width="3"/>
<path d="M813.952 -361.503C777.619 -416.683 715.486 -448.61 650.947 -445.209C536.814 -439.223 354.914 -429.697 240.797 -423.716C176.271 -420.335 119.132 -382.158 90.9393 -323.597C41.0604 -220.011 -38.4286 -54.9275 -88.3074 48.6592C-116.512 107.24 -111.51 177.307 -75.1723 232.503C-10.9185 330.104 91.4928 485.661 155.73 583.266C192.064 638.446 254.197 670.373 318.724 666.992C432.857 661.007 614.737 651.468 728.873 645.499C735.916 644.499 750.8 642.3 754 641.5" stroke="#B890FF" stroke-width="2"/>
<path d="M1438 333.696C1388.12 437.283 1421.73 364.094 1371.83 467.684C1343.64 526.262 1286.5 564.422 1221.97 567.803L1157 571" stroke="#B890FF" stroke-width="2"/>
<path d="M807.052 -361.2C770.719 -416.38 708.586 -448.306 644.047 -444.905C529.915 -438.92 348.014 -429.394 233.898 -423.412C169.371 -420.031 112.232 -381.855 84.0394 -323.294C34.1605 -219.707 -45.3285 -54.624 -95.2073 48.9626C-123.412 107.544 -118.41 177.61 -82.0722 232.807C-17.8184 330.408 84.5929 485.965 148.831 583.57C185.164 638.75 247.297 670.676 311.824 667.296C425.957 661.31 607.837 651.772 721.974 645.803C727.816 645.368 742.4 643.9 754 641.5" stroke="#B890FF" stroke-width="3"/>
<path d="M1439 314.197C1389.12 417.783 1414.83 364.397 1364.93 467.988C1336.74 526.565 1279.6 564.725 1215.07 568.106L1157 571" stroke="#B890FF" stroke-width="3"/>
</g>
<defs>
<clipPath id="clip0">
<rect width="1440" height="1024" fill="white"/>
</clipPath>
</defs>
</svg>
