<svg width="1440" height="1024" viewBox="0 0 1440 1024" fill="none" xmlns="http://www.w3.org/2000/svg">
<g clip-path="url(#clip0)">
<path d="M-3.5 1023.5V428C61 513 155.918 666.5 238 772.5C311.5 867.417 413.167 878.167 452 873.5L749.5 853C795.833 848.667 909.1 838.8 991.5 834C1094.5 828 1098.5 827.5 1165.5 799C1219.1 776.2 1261.17 721.833 1275.5 697.5L1444 352V1023.5H-3.5Z" fill="white"/>
<path d="M1443 580C1378.75 677.601 1349.01 728.433 1284.77 826.038C1248.44 881.218 1186.31 913.145 1121.78 909.764C1007.65 903.778 825.766 894.24 711.629 888.271C693.62 888.17 650.102 882.468 620.102 860.468" stroke="#0073B4" stroke-width="3"/>
<path d="M-31.3977 503.968C18.4812 607.555 18.7754 606.865 68.6704 710.456C96.8592 769.033 154.002 807.193 218.529 810.574L275.102 810.574" stroke="#0073B4" stroke-width="3"/>
<path d="M1441 511C1376.75 608.601 1316.11 702.129 1251.87 799.734C1215.54 854.914 1153.4 886.841 1088.88 883.46C974.745 877.475 792.865 867.936 678.728 861.967C671.686 860.967 656.802 858.768 653.602 857.968" stroke="#B890FF" stroke-width="2"/>
<path d="M-30.3982 550.164C19.4807 653.751 -14.1246 580.562 35.7704 684.152C63.9592 742.73 121.102 780.89 185.629 784.271L250.602 787.468" stroke="#B890FF" stroke-width="2"/>
<path d="M1502.81 265.431C1531.01 324.012 1526.01 394.078 1489.67 449.275C1425.42 546.876 1323.01 702.433 1258.77 800.038C1222.44 855.218 1160.31 887.144 1095.78 883.764C981.646 877.778 799.766 868.24 685.629 862.271C679.787 861.836 665.203 860.368 653.603 857.968" stroke="#B890FF" stroke-width="3"/>
<path d="M-31.3977 530.665C18.4812 634.251 -7.2242 580.865 42.6708 684.456C70.8596 743.033 128.002 781.193 192.529 784.574L250.602 787.468" stroke="#B890FF" stroke-width="3"/>
</g>
<defs>
<clipPath id="clip0">
<rect width="1440" height="1024" fill="white"/>
</clipPath>
</defs>
</svg>
