<svg width="45" height="45" viewBox="0 0 45 45" fill="none" xmlns="http://www.w3.org/2000/svg">
<g filter="url(#filter0_d)">
<path d="M22.1834 40.8068C10.8592 40.6018 1.7442 31.2897 2.00548 19.8876C2.26345 8.4491 11.7191 -0.0793208 22.5571 0.0231922C33.7854 0.132319 43.284 9.52714 42.8243 21.3095C42.401 32.2453 33.3588 40.9358 22.1834 40.8068ZM24.7036 34.4841C24.7036 33.5615 24.7036 32.7182 24.7036 31.875C24.7036 31.0284 24.7002 30.1852 24.7002 29.3386C24.7002 28.492 24.7002 27.6488 24.7002 26.8022C24.7002 25.9557 24.6936 25.1124 24.6969 24.2659C24.7002 23.4292 24.6606 22.5893 24.7168 21.6931C26.172 21.6931 27.5412 21.6931 28.9799 21.6931C29.1949 20.0132 29.3999 18.3929 29.6215 16.6634C27.948 16.6634 26.3605 16.6634 24.6771 16.6634C24.6771 16.1541 24.6738 15.7374 24.6771 15.3241C24.687 14.4775 24.6539 13.631 24.7267 12.791C24.8061 11.8386 25.3419 11.2996 26.2745 11.1277C26.6218 11.0648 26.9823 11.0516 27.3362 11.045C27.9811 11.0318 28.626 11.045 29.271 11.0384C29.4165 11.0384 29.5653 11.002 29.7737 10.9755C29.7505 9.48746 29.81 8.03243 29.7075 6.51789C28.6029 6.46167 27.5644 6.37569 26.5226 6.36577C25.7917 6.35916 25.0475 6.37569 24.3331 6.51127C22.2065 6.9114 20.7017 8.09857 19.9609 10.1786C19.6434 11.0681 19.5111 11.9908 19.5045 12.9299C19.5012 13.955 19.5111 14.9769 19.5111 16.002C19.5111 16.1938 19.4813 16.3889 19.4615 16.6237C18.036 16.6997 16.6403 16.5873 15.2678 16.6964C15.2678 18.3862 15.2678 20 15.2678 21.6865C16.6899 21.6865 18.0592 21.6865 19.4879 21.6865C19.5045 22.0205 19.5243 22.2817 19.5243 22.5397C19.5408 26.2797 19.5508 30.0165 19.5673 33.7566C19.5673 33.9881 19.6004 34.2228 19.6169 34.4874C21.3301 34.4841 22.9672 34.4841 24.7036 34.4841Z" fill="#3C5898"/>
</g>
<defs>
<filter id="filter0_d" x="0" y="0.0222778" width="44.8403" height="44.786" filterUnits="userSpaceOnUse" color-interpolation-filters="sRGB">
<feFlood flood-opacity="0" result="BackgroundImageFix"/>
<feColorMatrix in="SourceAlpha" type="matrix" values="0 0 0 0 0 0 0 0 0 0 0 0 0 0 0 0 0 0 127 0"/>
<feOffset dy="2"/>
<feGaussianBlur stdDeviation="1"/>
<feColorMatrix type="matrix" values="0 0 0 0 0 0 0 0 0 0 0 0 0 0 0 0 0 0 0.25 0"/>
<feBlend mode="normal" in2="BackgroundImageFix" result="effect1_dropShadow"/>
<feBlend mode="normal" in="SourceGraphic" in2="effect1_dropShadow" result="shape"/>
</filter>
</defs>
</svg>
