<svg width="45" height="45" viewBox="0 0 45 45" fill="none" xmlns="http://www.w3.org/2000/svg">
<g filter="url(#filter0_d)">
<path d="M42.835 20.8597C42.6363 31.8656 33.4999 41.0339 22.0355 40.8187C10.9089 40.6101 1.77251 31.4451 2.00432 20.0087C2.23612 8.53923 11.6871 -0.13573 22.7078 0.00995631C33.9172 0.162265 43.0933 9.50937 42.835 20.8597ZM35.1259 32.1702C35.1259 31.8822 35.1259 31.6438 35.1259 31.4054C35.1225 28.7102 35.1325 26.0117 35.1126 23.3165C35.106 22.4258 35.0629 21.5351 34.9835 20.6478C34.8874 19.5518 34.6192 18.4956 34.0827 17.5221C33.5794 16.6116 32.8542 15.9494 31.8939 15.5454C30.6057 15.0024 29.2546 14.87 27.8936 15.0587C26.41 15.2673 25.1318 15.903 24.2046 17.1347C24.1218 17.2473 24.0092 17.3367 23.8304 17.5155C23.8039 16.7506 23.784 16.1017 23.7608 15.4693C22.6614 15.3368 19.2969 15.3832 18.8201 15.5222C18.8201 21.0583 18.8201 26.5977 18.8201 32.2066C20.5752 32.2331 22.274 32.2364 24.0224 32.1967C24.0224 31.859 24.0224 31.614 24.0224 31.3723C24.0257 28.6969 24.0092 26.0216 24.0456 23.3496C24.0555 22.6907 24.1714 22.0119 24.3701 21.3828C24.7609 20.161 25.8669 19.5286 27.2677 19.6114C28.5989 19.6909 29.3639 20.2935 29.6354 21.6378C29.791 22.396 29.8242 23.184 29.8341 23.9621C29.8639 26.4586 29.8573 28.9552 29.8672 31.4517C29.8672 31.6868 29.897 31.9219 29.9136 32.1702C31.6753 32.1702 33.3542 32.1702 35.1259 32.1702ZM15.4523 32.1702C15.4755 32.0312 15.5053 31.9451 15.5053 31.8557C15.5053 26.5083 15.4986 21.161 15.4953 15.8136C15.4953 15.7275 15.4722 15.6381 15.4556 15.552C15.4523 15.5322 15.4324 15.5156 15.4192 15.4991C15.4026 15.4825 15.3861 15.4693 15.3794 15.4593C13.6906 15.4593 12.0083 15.4593 10.3029 15.4593C10.3029 21.0484 10.3029 26.5845 10.3029 32.1669C12.0448 32.1702 13.7469 32.1702 15.4523 32.1702ZM12.813 13.1283C14.4986 13.1548 15.8662 11.8536 15.9027 10.1848C15.9424 8.45976 14.641 7.09892 12.919 7.07243C11.207 7.04594 9.86911 8.3207 9.83599 10.0093C9.80619 11.7576 11.0877 13.1052 12.813 13.1283Z" fill="#0077B7"/>
</g>
<defs>
<filter id="filter0_d" x="0" y="0.00814819" width="44.8403" height="44.8143" filterUnits="userSpaceOnUse" color-interpolation-filters="sRGB">
<feFlood flood-opacity="0" result="BackgroundImageFix"/>
<feColorMatrix in="SourceAlpha" type="matrix" values="0 0 0 0 0 0 0 0 0 0 0 0 0 0 0 0 0 0 127 0"/>
<feOffset dy="2"/>
<feGaussianBlur stdDeviation="1"/>
<feColorMatrix type="matrix" values="0 0 0 0 0 0 0 0 0 0 0 0 0 0 0 0 0 0 0.25 0"/>
<feBlend mode="normal" in2="BackgroundImageFix" result="effect1_dropShadow"/>
<feBlend mode="normal" in="SourceGraphic" in2="effect1_dropShadow" result="shape"/>
</filter>
</defs>
</svg>
