<?xml version="1.0" encoding="utf-8"?>
<!-- Generator: Adobe Illustrator 24.0.3, SVG Export Plug-In . SVG Version: 6.00 Build 0)  -->
<svg version="1.1" id="Layer_1" xmlns="http://www.w3.org/2000/svg" xmlns:xlink="http://www.w3.org/1999/xlink" x="0px" y="0px"
	 viewBox="0 0 104.6 115.3" style="enable-background:new 0 0 104.6 115.3;" xml:space="preserve">
<style type="text/css">
	.st0{display:none;}
	.st1{display:inline;fill-rule:evenodd;clip-rule:evenodd;}
	.st2{fill-rule:evenodd;clip-rule:evenodd;fill:#FFFFFF;}
</style>
<g id="backgrounds" class="st0">
	<rect x="-31.7" y="-25.4" class="st1" width="168.1" height="164.2"/>
</g>
<g id="Layer_2_1_">
</g>
<g id="Layer_1_1_">
	<path class="st2" d="M95.8,22.4c-9.6-5.6-25-14.4-34.7-20c-5.5-3.2-12.2-3.2-17.6,0c-9.7,5.6-25,14.4-34.7,20
		C3.3,25.6,0,31.4,0,37.7v40C0,84,3.4,89.8,8.8,93c9.6,5.6,25,14.4,34.7,20c5.5,3.1,12.2,3.1,17.6,0c9.7-5.6,25-14.4,34.7-20
		c5.5-3.2,8.8-9,8.8-15.3v-40C104.6,31.4,101.2,25.6,95.8,22.4z M30.4,69.8v-0.3c0-0.4,0-0.9,0.1-1.3c0.1-0.7,0.2-1.4,0.5-2
		c0.2-0.8,0.6-1.5,1-2.2c0.4-0.6,0.8-1.2,1.2-1.8c0.6-0.7,1.3-1.4,2-2c0.3-0.3,0.7-0.5,1-0.8l0.3-0.1c0.1,0,0.2,0,0.3,0
		s0.2,0.1,0.3,0.1c0,0,0.1,0,0.1,0.1c0,0,0,0,0.1,0s0.1,0.1,0.2,0.1c0.3,0.2,0.7,0.4,1,0.6c0.7,0.4,1.5,0.8,2.3,1.1
		c0.7,0.3,1.4,0.5,2.1,0.8c0.4,0.1,0.8,0.2,1.1,0.4l0.3,0.1l0.2,0.3l0.1,0.3v0.3l-0.4,0.2c-0.1,0.1-0.2,0.1-0.3,0.2h-0.1h-0.1
		c-0.1,0-0.1,0-0.2,0.1c-0.2,0.1-0.4,0.2-0.6,0.3c-0.6,0.3-1.2,0.6-1.8,0.9c-0.5,0.3-1,0.7-1.5,1.1c-0.6,0.5-1.1,1.2-1.4,1.9
		c0,0.1-0.1,0.2-0.1,0.4c-0.1,0.3-0.2,0.6-0.2,0.9c0,0.1,0,0.2,0,0.3v0.3c0,0,0,0,0,0.1c0,0.2,0,0.4-0.1,0.5c-0.1,0.3-0.2,0.7-0.3,1
		c-0.2,0.4-0.5,0.8-0.9,1.1c-0.4,0.3-0.8,0.6-1.2,0.7c-0.4,0.2-0.8,0.2-1.2,0.2c-0.4,0-0.8,0-1.2-0.2c-0.4-0.1-0.8-0.3-1.1-0.6
		c-0.6-0.4-1-1-1.2-1.6c-0.1-0.3-0.2-0.6-0.2-0.9c0-0.1,0-0.3,0-0.4l0,0l0,0v-0.1L30.4,69.8z M74.2,88.2c0,0.1,0,0.3,0,0.4v0.1
		c0,0.1,0,0.2,0,0.3c0,0.2-0.1,0.3-0.1,0.5c-0.2,0.4-0.4,0.8-0.7,1.2c-0.4,0.4-0.8,0.7-1.3,0.9c-0.1,0-0.2,0.1-0.3,0.1
		c-0.2,0-0.3,0.1-0.5,0.1s-0.4,0-0.6,0.1h-0.1H34.1c-0.1,0-0.3,0-0.4,0c-0.1,0-0.3,0-0.4,0c-0.1,0-0.3-0.1-0.5-0.1
		c-0.4-0.2-0.8-0.4-1.2-0.7c-0.4-0.4-0.8-0.8-1-1.3c0-0.1-0.1-0.2-0.1-0.3c0-0.1-0.1-0.3-0.1-0.4c0-0.2,0-0.4-0.1-0.6v-0.1v-6.6
		v-0.1c0,0,0-0.1,0-0.2s0-0.2,0-0.3c0-0.4,0.1-0.7,0.3-1.1s0.5-0.8,0.8-1.2c0.3-0.3,0.7-0.6,1.2-0.8c0.4-0.2,0.8-0.3,1.2-0.3
		s0.8,0,1.2,0.1c0.3,0.1,0.7,0.2,0.9,0.4c0.4,0.2,0.7,0.5,0.9,0.8c0.3,0.3,0.5,0.7,0.6,1s0.2,0.5,0.2,0.8c0,0.2,0,0.3,0,0.5l0,0l0,0
		l0,0v3h29v-2.8v-0.1c0-0.1,0-0.3,0-0.4c0-0.3,0.1-0.5,0.2-0.8c0.1-0.4,0.4-0.8,0.6-1.2c0.2-0.3,0.5-0.6,0.8-0.8
		c0.3-0.2,0.5-0.3,0.8-0.4s0.5-0.2,0.8-0.2c0.1,0,0.3,0,0.4,0c0,0,0,0,0.1,0s0.3,0,0.4,0c0.3,0,0.6,0.1,0.8,0.2
		c0.5,0.2,0.9,0.5,1.3,0.8c0.4,0.4,0.7,0.9,0.9,1.4c0.1,0.3,0.2,0.5,0.2,0.8c0,0.1,0,0.3,0,0.4l0,0v6.9H74.2z M74.2,69.4
		c0,0.1,0,0.3,0,0.4c-0.1,0.4-0.2,0.7-0.3,1.1c-0.2,0.4-0.5,0.8-0.8,1.1c-0.3,0.3-0.7,0.6-1.1,0.8c-0.4,0.2-0.8,0.3-1.3,0.3
		c-0.4,0-0.8,0-1.2-0.1c-0.3-0.1-0.7-0.2-1-0.4c-0.4-0.2-0.7-0.5-0.9-0.8c-0.3-0.3-0.5-0.7-0.6-1.1c-0.1-0.3-0.2-0.7-0.2-1
		c0-0.1,0-0.2,0-0.2v-0.1v-0.1c0-0.2,0-0.4-0.1-0.6c0-0.1,0-0.3-0.1-0.4c-0.2-0.8-0.6-1.5-1.1-2.1c-0.1-0.3-0.2-0.4-0.2-0.5
		c-0.1-0.1-0.2-0.2-0.3-0.3c-0.2-0.1-0.3-0.3-0.5-0.4c-0.2-0.2-0.4-0.3-0.6-0.5c-0.3-0.2-0.5-0.3-0.8-0.5c-0.4-0.2-0.7-0.4-1.1-0.6
		c-0.5-0.2-0.9-0.4-1.4-0.6c-0.6-0.2-1.2-0.4-1.8-0.5c-0.8-0.2-1.5-0.3-2.3-0.4c-0.6-0.1-1.3-0.1-1.9-0.2c-0.3,0-0.6,0-0.9,0h-0.1
		l0,0h-1.4c-0.1,0-0.3,0-0.4,0c-0.6,0-1.3,0-1.9-0.1c-1.1-0.1-2.2-0.2-3.2-0.4c-1.7-0.3-3.4-0.8-5.1-1.4c-0.6-0.3-1.3-0.5-1.9-0.8
		c-0.3-0.1-0.6-0.3-0.9-0.4h-0.1c-0.4-0.2-0.8-0.5-1.2-0.7c-0.8-0.5-1.6-1.2-2.3-1.9c-0.8-0.8-1.5-1.8-2.1-2.8
		c-0.4-0.6-0.7-1.3-0.9-2c-0.2-0.6-0.4-1.2-0.5-1.8c-0.1-0.5-0.2-1.1-0.2-1.6c0-0.3,0-0.6,0-0.9V27.2v-0.5v-0.1
		c0-0.1,0.1-0.3,0.1-0.4v-0.1c0-0.1,0.1-0.2,0.1-0.3c0.1-0.1,0.1-0.3,0.2-0.4c0.3-0.5,0.7-1,1.3-1.3c0.2-0.1,0.5-0.3,0.7-0.4
		c0.1,0,0.2-0.1,0.3-0.1s0.2-0.1,0.3-0.1c0.2,0,0.3,0,0.5,0h0.1h0.1h0.5h0.1c0.1,0,0.3,0.1,0.4,0.1h0.1c0.1,0,0.2,0.1,0.3,0.1
		c0.1,0.1,0.3,0.1,0.4,0.2c0.5,0.3,1,0.8,1.3,1.3c0.2,0.3,0.3,0.6,0.4,0.9c0,0.1,0.1,0.3,0.1,0.4c0,0.2,0,0.3,0,0.5v0.1v2.6
		c0,2.9,0,5.8,0,8.6c0,2.7,0,5.3,0,8v0.6c0,0.1,0,0.2,0,0.3c0,0.2,0,0.5,0.1,0.7s0.1,0.5,0.2,0.7c0.1,0.2,0.1,0.3,0.2,0.5
		c0.1,0.1,0.1,0.3,0.2,0.4c0.5,0.8,1.2,1.5,1.9,2.1c0.1,0.1,0.3,0.2,0.4,0.3c0.2,0.1,0.4,0.2,0.6,0.4c0.3,0.2,0.6,0.3,0.8,0.4
		c0.3,0.2,0.7,0.3,1,0.4c0.5,0.2,1,0.3,1.5,0.5c0.6,0.2,1.3,0.3,1.9,0.4c0.8,0.1,1.6,0.2,2.4,0.3c0.5,0,1,0.1,1.5,0.1
		c0.1,0,0.3,0,0.4,0h0.3c0.3,0,0.5,0,0.8,0h0.2c0.1,0,0.2,0,0.3,0c1.3,0,2.6,0.2,3.9,0.4c0.6,0.1,1.1,0.2,1.7,0.3
		c0.4,0.1,0.8,0.2,1.2,0.3c2.4,0.6,4.7,1.6,6.8,2.9c0.3,0.2,0.6,0.4,0.9,0.6c0.4,0.3,0.8,0.6,1.1,0.9c0.4,0.3,0.9,0.7,1.3,1.1
		c0.3,0.2,0.5,0.5,0.7,0.7l0,0c0.2,0.2,0.4,0.5,0.5,0.7c0.4,0.5,0.7,1,1,1.6c0.4,0.7,0.7,1.4,0.9,2.2c0.2,0.7,0.4,1.5,0.5,2.3
		c0,0.3,0,0.6,0,0.9c0,0.1,0,0.2,0,0.2C74.2,69.3,74.2,69.3,74.2,69.4z M74.2,46.8c0,0.1,0,0.1,0,0.2c0,0.3,0,0.6,0,0.9
		c-0.1,0.5-0.1,1-0.3,1.6c-0.2,0.7-0.4,1.4-0.7,2.1c-0.3,0.7-0.7,1.4-1.2,2c-0.6,0.8-1.3,1.6-2.1,2.3c-0.4,0.4-0.8,0.7-1.3,1.1l0,0
		c-0.1,0-0.2,0.1-0.3,0.1c-0.1,0-0.2,0-0.3,0c-0.2,0-0.3-0.1-0.4-0.2c0,0-0.1,0-0.1-0.1c-0.1,0-0.1-0.1-0.2-0.1
		c-0.3-0.1-0.5-0.3-0.8-0.4c-0.5-0.3-1-0.5-1.6-0.8c-0.9-0.4-1.8-0.7-2.7-1c-0.4-0.1-0.8-0.3-1.2-0.4L60.7,54l-0.1-0.3l-0.1-0.3
		v-0.3l0.2-0.3c0.1-0.1,0.2-0.1,0.3-0.2c0,0,0,0,0.1,0c0,0,0.1,0,0.2-0.1c0.1,0,0.1-0.1,0.2-0.1c0.5-0.2,0.9-0.4,1.3-0.6
		c0.3-0.2,0.6-0.4,1-0.6c0.2-0.2,0.5-0.3,0.7-0.5c0.2-0.1,0.4-0.3,0.5-0.4c0.2-0.1,0.3-0.3,0.4-0.4s0.2-0.2,0.3-0.3
		c0.1-0.1,0.2-0.2,0.2-0.3c0.5-0.6,0.8-1.2,0.9-2c0-0.1,0-0.3,0-0.4s0-0.1,0-0.2V27.2c0-0.1,0-0.3,0-0.4v-0.1c0-0.1,0-0.2,0-0.3
		c0-0.2,0.1-0.3,0.1-0.4c0.2-0.5,0.4-0.9,0.8-1.3c0.4-0.4,0.8-0.7,1.3-0.9c0.1,0,0.2-0.1,0.2-0.1c0.2,0,0.3-0.1,0.5-0.1
		s0.4,0,0.6-0.1h0.1h0.1H71h0.1c0.1,0,0.3,0.1,0.4,0.1h0.1c0.1,0,0.2,0.1,0.3,0.1c0.1,0.1,0.3,0.1,0.4,0.2c0.5,0.3,1,0.7,1.3,1.3
		c0.1,0.2,0.3,0.5,0.3,0.7c0,0.1,0.1,0.2,0.1,0.3s0.1,0.2,0.1,0.3c0,0.2,0,0.3,0,0.5v0.1L74.2,46.8L74.2,46.8z"/>
</g>
</svg>
