<svg width="105" height="116" viewBox="0 0 105 116" fill="none" xmlns="http://www.w3.org/2000/svg">
<path fill-rule="evenodd" clip-rule="evenodd" d="M43.5 2.325C49 -0.775 55.7 -0.775 61.1 2.325C70.7 7.925 86.1 16.725 95.8 22.325C101.3 25.425 104.6 31.325 104.6 37.625C104.6 48.725 104.6 66.525 104.6 77.625C104.6 83.925 101.2 89.725 95.8 92.925C86.2 98.525 70.8 107.325 61.1 112.925C55.6 116.025 48.9 116.025 43.5 112.925C33.9 107.325 18.5 98.525 8.8 92.925C3.3 89.825 0 83.925 0 77.625C0 66.525 0 48.725 0 37.625C0 31.325 3.4 25.525 8.8 22.325C18.5 16.725 33.8 7.825 43.5 2.325Z" fill="url(#paint0_linear)"/>
<path d="M68.7002 68.025C68.7002 67.925 68.7002 67.825 68.7002 67.725C68.7002 67.525 68.6002 67.325 68.6002 67.125C68.5002 66.725 68.2002 66.425 67.9002 66.125C67.6002 65.825 67.3002 65.625 67.0002 65.525C66.8002 65.425 66.6002 65.425 66.4002 65.325C66.3002 65.325 66.2002 65.325 66.1002 65.325C66.1002 65.325 66.1002 65.325 66.0002 65.325C65.9002 65.325 65.8002 65.325 65.7002 65.325C65.5002 65.325 65.3002 65.425 65.1002 65.425C64.9002 65.525 64.7002 65.625 64.5002 65.725C64.3002 65.925 64.1002 66.125 63.9002 66.325C63.7002 66.625 63.5002 66.825 63.4002 67.125C63.3002 67.325 63.3002 67.525 63.3002 67.725C63.3002 67.825 63.3002 67.925 63.3002 68.025C63.3002 68.025 63.3002 68.025 63.3002 68.125C63.3002 68.225 63.3002 68.125 63.3002 68.225V70.225H41.8002V68.025C41.8002 67.925 41.8002 67.825 41.8002 67.725C41.8002 67.525 41.7002 67.325 41.6002 67.125C41.5002 66.825 41.3002 66.625 41.1002 66.325C40.9002 66.125 40.7002 65.925 40.4002 65.725C40.2002 65.625 39.9002 65.525 39.7002 65.425C39.4002 65.325 39.1002 65.325 38.8002 65.325C38.5002 65.325 38.2002 65.425 37.9002 65.525C37.6002 65.625 37.3002 65.825 37.0002 66.125C36.7002 66.325 36.5002 66.625 36.4002 67.025C36.3002 67.225 36.2002 67.525 36.2002 67.825C36.2002 67.925 36.2002 68.025 36.2002 68.025V68.125V68.225V73.125V73.225C36.2002 73.325 36.2002 73.525 36.2002 73.625C36.2002 73.725 36.3002 73.825 36.3002 73.925C36.3002 74.025 36.3002 74.025 36.4002 74.125C36.6002 74.525 36.8002 74.825 37.1002 75.125C37.4002 75.325 37.7002 75.525 38.0002 75.625C38.1002 75.625 38.2002 75.725 38.3002 75.725C38.4002 75.725 38.5002 75.725 38.6002 75.725C38.7002 75.725 38.8002 75.725 38.9002 75.725H65.8002H65.9002C66.0002 75.725 66.2002 75.725 66.3002 75.725C66.4002 75.725 66.5002 75.625 66.6002 75.625C66.7002 75.625 66.7002 75.625 66.8002 75.525C67.2002 75.325 67.5002 75.125 67.8002 74.825C68.0002 74.525 68.2002 74.325 68.3002 73.925C68.3002 73.825 68.4002 73.725 68.4002 73.625C68.4002 73.525 68.4002 73.525 68.4002 73.425V73.325C68.4002 73.225 68.4002 73.125 68.4002 73.025L68.7002 68.025ZM36.3002 59.625C36.3002 59.725 36.3002 59.825 36.3002 59.925C36.3002 60.125 36.4002 60.325 36.5002 60.525C36.7002 61.025 37.0002 61.425 37.4002 61.725C37.6002 61.925 37.9002 62.025 38.2002 62.125C38.5002 62.225 38.8002 62.225 39.1002 62.225C39.4002 62.225 39.7002 62.125 40.0002 62.025C40.3002 61.925 40.6002 61.725 40.9002 61.525C41.2002 61.325 41.4002 61.025 41.5002 60.725C41.6002 60.525 41.7002 60.225 41.7002 60.025C41.7002 59.925 41.7002 59.725 41.7002 59.625C41.7002 59.625 41.7002 59.625 41.7002 59.525C41.7002 59.425 41.7002 59.425 41.7002 59.325C41.7002 59.225 41.7002 59.225 41.7002 59.125C41.7002 58.925 41.8002 58.625 41.8002 58.425C41.8002 58.325 41.9002 58.225 41.9002 58.125C42.1002 57.625 42.5002 57.125 42.9002 56.725C43.2002 56.425 43.6002 56.125 44.0002 55.925C44.4002 55.625 44.9002 55.425 45.3002 55.225C45.4002 55.125 45.6002 55.125 45.7002 55.025C45.7002 55.025 45.8002 55.025 45.8002 54.925C45.8002 54.925 45.8002 54.925 45.9002 54.925H46.0002C46.1002 54.925 46.1002 54.825 46.2002 54.825L46.3002 54.625V54.425L46.6002 54.225L46.5002 54.025L46.3002 53.925C46.0002 53.825 45.7002 53.725 45.4002 53.625C44.9002 53.425 44.4002 53.225 43.9002 53.025C43.3002 52.825 42.8002 52.525 42.2002 52.225C41.9002 52.125 41.7002 51.925 41.4002 51.825L41.3002 51.725C41.3002 51.725 41.3002 51.725 41.2002 51.725C41.2002 51.725 41.2002 51.725 41.1002 51.725C41.0002 51.725 41.0002 51.625 40.9002 51.625C40.8002 51.625 40.8002 51.625 40.7002 51.625L40.5002 51.725C40.2002 51.925 40.0002 52.125 39.8002 52.325C39.3002 52.725 38.8002 53.225 38.3002 53.825C38.0002 54.225 37.7002 54.725 37.4002 55.125C37.1002 55.625 36.9002 56.125 36.7002 56.725C36.5002 57.225 36.4002 57.725 36.4002 58.225C36.4002 58.525 36.3002 58.825 36.3002 59.225V59.425V59.625ZM68.7002 58.125C68.6002 57.525 68.5002 57.025 68.4002 56.425C68.2002 55.825 68.0002 55.325 67.7002 54.825C67.5002 54.425 67.2002 54.025 67.0002 53.625C66.9002 53.425 66.7002 53.225 66.6002 53.125C66.4002 52.925 66.2002 52.725 66.1002 52.625C65.8002 52.325 65.5002 52.125 65.2002 51.825C64.9002 51.625 64.6002 51.425 64.4002 51.225C64.2002 51.125 64.0002 50.925 63.8002 50.825C62.2002 49.825 60.5002 49.225 58.8002 48.725C58.5002 48.625 58.2002 48.625 57.9002 48.525C57.5002 48.425 57.1002 48.325 56.7002 48.325C55.8002 48.125 54.8002 48.025 53.8002 48.025C53.7002 48.025 53.7002 48.025 53.6002 48.025H53.5002H53.4002C53.2002 48.025 53.0002 48.025 52.8002 48.025C52.7002 48.025 52.7002 48.025 52.6002 48.025C52.5002 48.025 52.4002 48.025 52.3002 48.025C51.9002 48.025 51.6002 48.025 51.2002 47.925C50.6002 47.925 50.0002 47.825 49.4002 47.725C48.9002 47.625 48.5002 47.525 48.0002 47.425C47.6002 47.325 47.3002 47.225 46.9002 47.125C46.6002 47.025 46.4002 46.925 46.1002 46.825C45.9002 46.725 45.7002 46.625 45.5002 46.525C45.4002 46.425 45.2002 46.325 45.1002 46.225C45.0002 46.125 44.9002 46.125 44.8002 46.025C44.2002 45.625 43.7002 45.125 43.4002 44.525C43.3002 44.425 43.3002 44.325 43.3002 44.225C43.2002 44.125 43.2002 44.025 43.1002 43.925C43.0002 43.725 43.0002 43.625 42.9002 43.425C42.9002 43.225 42.8002 43.125 42.8002 42.925C42.8002 42.825 42.8002 42.725 42.8002 42.625V42.125C42.8002 40.125 42.8002 38.225 42.8002 36.225C42.8002 34.125 42.8002 32.025 42.8002 29.825C42.8002 29.225 42.8002 28.625 42.8002 28.025V27.925C42.8002 27.825 42.8002 27.725 42.8002 27.525C42.8002 27.425 42.8002 27.325 42.7002 27.225C42.6002 27.025 42.5002 26.825 42.4002 26.525C42.2002 26.125 41.8002 25.825 41.4002 25.525C41.3002 25.425 41.2002 25.425 41.1002 25.425C41.0002 25.425 41.0002 25.325 40.9002 25.325C40.9002 25.325 40.9002 25.325 40.8002 25.325C40.7002 25.325 40.6002 25.325 40.5002 25.225H40.4002H40.0002H39.9002H39.8002C39.7002 25.225 39.6002 25.225 39.4002 25.225C39.3002 25.225 39.2002 25.225 39.1002 25.325C39.0002 25.325 39.0002 25.325 38.9002 25.425C38.7002 25.525 38.5002 25.625 38.4002 25.725C38.0002 25.925 37.7002 26.325 37.5002 26.725C37.4002 26.825 37.4002 26.925 37.4002 27.025C37.4002 27.125 37.3002 27.125 37.3002 27.225C37.3002 27.225 37.3002 27.225 37.3002 27.325C37.3002 27.425 37.3002 27.525 37.2002 27.625V27.725V28.125V42.625C37.2002 42.825 37.2002 43.025 37.2002 43.325C37.2002 43.725 37.3002 44.125 37.4002 44.525C37.5002 45.025 37.6002 45.425 37.8002 45.825C38.0002 46.325 38.2002 46.825 38.5002 47.225C38.9002 47.925 39.5002 48.625 40.1002 49.225C40.6002 49.725 41.2002 50.225 41.8002 50.625C42.1002 50.825 42.4002 51.025 42.7002 51.125C42.9002 51.225 43.1002 51.325 43.3002 51.425C43.8002 51.625 44.2002 51.825 44.7002 52.025C45.9002 52.525 47.2002 52.825 48.4002 53.025C49.2002 53.125 50.0002 53.225 50.8002 53.325C51.3002 53.325 51.7002 53.425 52.2002 53.425C52.3002 53.425 52.4002 53.425 52.5002 53.425H52.6002H52.7002C52.8002 53.425 52.9002 53.425 52.9002 53.425C53.0002 53.425 53.1002 53.425 53.2002 53.425H53.5002C53.5002 53.425 53.5002 53.425 53.6002 53.425H53.7002C53.9002 53.425 54.1002 53.425 54.4002 53.425C54.9002 53.425 55.4002 53.525 55.8002 53.525C56.4002 53.625 56.9002 53.725 57.5002 53.825C57.9002 53.925 58.4002 54.025 58.8002 54.225C59.2002 54.325 59.5002 54.525 59.8002 54.625C60.1002 54.725 60.3002 54.925 60.6002 55.025C60.8002 55.125 61.0002 55.225 61.2002 55.425C61.4002 55.525 61.5002 55.625 61.6002 55.725C61.7002 55.825 61.8002 55.925 61.9002 56.025C62.0002 56.125 62.1002 56.225 62.1002 56.225C62.2002 56.325 62.2002 56.325 62.3002 56.425C62.7002 56.825 63.0002 57.425 63.1002 57.925C63.1002 58.025 63.1002 58.125 63.2002 58.225C63.2002 58.325 63.2002 58.525 63.2002 58.625V58.725V58.825C63.2002 58.925 63.2002 58.925 63.2002 59.025C63.2002 59.325 63.3002 59.525 63.4002 59.825C63.5002 60.125 63.7002 60.325 63.8002 60.625C64.0002 60.825 64.2002 61.025 64.5002 61.225C64.7002 61.325 65.0002 61.425 65.2002 61.525C65.5002 61.625 65.8002 61.625 66.1002 61.625C66.4002 61.625 66.7002 61.525 67.0002 61.425C67.3002 61.325 67.6002 61.125 67.8002 60.825C68.0002 60.625 68.2002 60.325 68.4002 60.025C68.5002 59.825 68.6002 59.525 68.6002 59.225C68.6002 59.125 68.6002 59.025 68.6002 58.925V58.825C68.6002 58.725 68.6002 58.725 68.6002 58.625C68.7002 58.625 68.7002 58.425 68.7002 58.125ZM68.7002 27.925C68.7002 27.825 68.7002 27.725 68.7002 27.525C68.7002 27.425 68.7002 27.325 68.6002 27.225C68.6002 27.125 68.6002 27.125 68.5002 27.025C68.4002 26.825 68.3002 26.625 68.2002 26.525C68.0002 26.125 67.6002 25.825 67.2002 25.625C67.1002 25.525 67.0002 25.525 66.9002 25.525C66.8002 25.525 66.8002 25.425 66.7002 25.425C66.7002 25.425 66.7002 25.425 66.6002 25.425C66.5002 25.425 66.4002 25.425 66.3002 25.325H66.2002H65.8002H65.7002H65.6002C65.5002 25.325 65.3002 25.325 65.2002 25.325C65.1002 25.325 65.0002 25.425 64.9002 25.425C64.8002 25.425 64.8002 25.425 64.7002 25.525C64.3002 25.625 64.0002 25.925 63.7002 26.225C63.4002 26.525 63.3002 26.825 63.1002 27.125C63.1002 27.225 63.0002 27.325 63.0002 27.425C63.0002 27.525 63.0002 27.525 63.0002 27.625V27.725C63.0002 27.825 63.0002 27.925 63.0002 28.025V42.525C63.0002 42.625 63.0002 42.625 63.0002 42.725C63.0002 42.825 63.0002 42.925 63.0002 43.025C62.9002 43.525 62.6002 44.025 62.3002 44.425C62.2002 44.525 62.2002 44.525 62.1002 44.625C62.0002 44.725 62.0002 44.825 61.9002 44.825C61.8002 44.925 61.7002 45.025 61.6002 45.125C61.5002 45.225 61.4002 45.325 61.2002 45.425C61.0002 45.525 60.9002 45.625 60.7002 45.825C60.5002 46.025 60.2002 46.125 60.0002 46.225C59.7002 46.425 59.4002 46.525 59.0002 46.725C58.9002 46.725 58.9002 46.725 58.8002 46.825H58.7002C58.6002 46.825 58.6002 46.925 58.5002 46.925L58.4002 47.125V47.325L58.5002 47.525L58.6002 47.725L58.8002 47.825C59.1002 47.925 59.4002 48.025 59.7002 48.125C60.4002 48.325 61.1002 48.625 61.7002 48.925C62.1002 49.125 62.5002 49.325 62.9002 49.525C63.1002 49.625 63.3002 49.725 63.5002 49.825L63.6002 49.925C63.6002 49.925 63.6002 49.925 63.7002 49.925C63.8002 50.025 63.9002 50.025 64.0002 50.025C64.1002 50.025 64.1002 50.025 64.2002 50.025C64.3002 50.025 64.3002 49.925 64.4002 49.925C64.7002 49.725 65.0002 49.425 65.4002 49.125C66.0002 48.625 66.5002 48.025 66.9002 47.425C67.2002 46.925 67.5002 46.425 67.8002 45.925C68.0002 45.425 68.2002 44.925 68.3002 44.425C68.4002 44.025 68.5002 43.625 68.5002 43.225C68.5002 43.025 68.5002 42.825 68.5002 42.625V42.525L68.7002 27.925Z" fill="white"/>
<path d="M44.1002 80.325V80.225L44.0002 80.125C43.9002 80.125 43.8002 80.125 43.7002 80.025C43.6002 80.025 43.4002 80.025 43.3002 80.025C43.1002 80.025 43.0002 80.025 42.9002 80.025C42.8002 80.025 42.7002 80.025 42.6002 80.125C42.5002 80.125 42.5002 80.225 42.5002 80.225V80.325V85.825C42.5002 86.125 42.5002 86.425 42.4002 86.725C42.3002 87.025 42.2002 87.225 42.0002 87.325C41.8002 87.525 41.6002 87.625 41.4002 87.725C41.2002 87.825 40.9002 87.825 40.6002 87.825C40.3002 87.825 40.1002 87.825 39.8002 87.725C39.6002 87.625 39.4002 87.525 39.2002 87.325C39.0002 87.125 38.9002 86.925 38.8002 86.625C38.7002 86.325 38.7002 86.025 38.7002 85.725V80.325V80.225C38.7002 80.225 38.6002 80.125 38.5002 80.125C38.4002 80.125 38.3002 80.125 38.2002 80.025C38.1002 80.025 37.9002 80.025 37.8002 80.025C37.6002 80.025 37.5002 80.025 37.3002 80.025C37.2002 80.025 37.1002 80.025 37.0002 80.125C36.8002 80.125 36.8002 80.225 36.7002 80.225V80.325V85.925C36.7002 86.525 36.8002 87.025 36.9002 87.425C37.1002 87.825 37.3002 88.225 37.6002 88.525C37.9002 88.825 38.3002 89.025 38.8002 89.225C39.3002 89.325 39.8002 89.425 40.3002 89.425C40.9002 89.425 41.4002 89.325 41.9002 89.225C42.4002 89.025 42.8002 88.825 43.1002 88.525C43.4002 88.225 43.7002 87.825 43.8002 87.425C44.0002 87.025 44.0002 86.525 44.0002 85.925V80.325H44.1002Z" fill="white"/>
<path d="M50.2006 84.525L52.2006 80.825C52.3006 80.625 52.3006 80.525 52.4006 80.425C52.4006 80.325 52.4006 80.225 52.4006 80.225C52.3006 80.125 52.3006 80.125 52.1006 80.125C52.0006 80.125 51.8006 80.125 51.5006 80.125C51.3006 80.125 51.1006 80.125 51.0006 80.125C50.9006 80.125 50.8006 80.125 50.7006 80.125C50.6006 80.125 50.6006 80.225 50.6006 80.225L50.5006 80.325L48.9006 83.325L47.3006 80.325C47.3006 80.225 47.2006 80.225 47.2006 80.225C47.2006 80.225 47.1006 80.125 47.0006 80.125C46.9006 80.125 46.8006 80.125 46.7006 80.125C46.6006 80.125 46.4006 80.125 46.2006 80.125C45.9006 80.125 45.7006 80.125 45.6006 80.125C45.5006 80.125 45.4006 80.125 45.3006 80.225C45.2006 80.225 45.2006 80.325 45.3006 80.425C45.3006 80.525 45.4006 80.625 45.5006 80.825L47.5006 84.525L45.3006 88.525C45.2006 88.725 45.2006 88.825 45.1006 88.925C45.1006 89.025 45.1006 89.125 45.1006 89.125C45.1006 89.225 45.2006 89.225 45.4006 89.225C45.5006 89.225 45.7006 89.225 46.0006 89.225C46.2006 89.225 46.4006 89.225 46.5006 89.225C46.6006 89.225 46.7006 89.225 46.8006 89.225C46.9006 89.225 46.9006 89.125 47.0006 89.125L47.1006 89.025L48.8006 85.725L50.5006 89.025C50.5006 89.125 50.6006 89.125 50.6006 89.125C50.6006 89.125 50.7006 89.225 50.8006 89.225C50.9006 89.225 51.0006 89.225 51.1006 89.225C51.2006 89.225 51.4006 89.225 51.6006 89.225C51.9006 89.225 52.1006 89.225 52.2006 89.225C52.3006 89.225 52.4006 89.225 52.5006 89.125C52.6006 89.025 52.6006 89.025 52.5006 88.925C52.5006 88.825 52.4006 88.725 52.3006 88.525L50.2006 84.525Z" fill="white"/>
<path d="M60.9006 82.625C60.7006 82.125 60.4006 81.625 60.0006 81.225C59.6006 80.825 59.1006 80.525 58.6006 80.425C58.0006 80.225 57.3006 80.125 56.5006 80.125H54.2006C54.0006 80.125 53.9006 80.125 53.8006 80.225C53.7006 80.325 53.6006 80.425 53.6006 80.625V88.625C53.6006 88.825 53.7006 89.025 53.8006 89.025C53.9006 89.125 54.0006 89.125 54.2006 89.125H56.4006C57.2006 89.125 57.9006 89.025 58.5006 88.825C59.1006 88.625 59.6006 88.325 60.0006 88.025C60.4006 87.725 60.7006 87.125 60.9006 86.525C61.1006 85.925 61.2006 85.225 61.2006 84.425C61.2006 83.825 61.1006 83.225 60.9006 82.625ZM59.1006 86.025C59.0006 86.425 58.8006 86.725 58.6006 87.025C58.4006 87.325 58.1006 87.525 57.7006 87.625C57.4006 87.725 56.9006 87.825 56.4006 87.825H55.4006V81.625H56.3006C56.9006 81.625 57.3006 81.725 57.7006 81.825C58.0006 82.025 58.3006 82.225 58.6006 82.425C58.8006 82.725 59.0006 83.025 59.1006 83.425C59.2006 83.825 59.3006 84.225 59.3006 84.625C59.3006 85.125 59.2006 85.625 59.1006 86.025Z" fill="white"/>
<path d="M66.6 84.525L68.6 80.825C68.7 80.625 68.7 80.525 68.8 80.425C68.8 80.325 68.8 80.225 68.8 80.225C68.7 80.125 68.7 80.125 68.5 80.125C68.4 80.125 68.2 80.125 67.9 80.125C67.7 80.125 67.5 80.125 67.4 80.125C67.3 80.125 67.2 80.125 67.1 80.125C67 80.125 67 80.225 67 80.225L66.9 80.325L65.3 83.325L63.7 80.325C63.7 80.225 63.6 80.225 63.6 80.225C63.6 80.225 63.5 80.125 63.4 80.125C63.3 80.125 63.2 80.125 63.1 80.125C63 80.125 62.8 80.125 62.6 80.125C62.3 80.125 62.1 80.125 62 80.125C61.9 80.125 61.8 80.125 61.7 80.225C61.6 80.225 61.6 80.325 61.7 80.425C61.7 80.525 61.8 80.625 61.9 80.825L63.9 84.525L61.7 88.525C61.6 88.725 61.6 88.825 61.5 88.925C61.5 89.025 61.5 89.125 61.5 89.125C61.5 89.225 61.6 89.225 61.8 89.225C61.9 89.225 62.1 89.225 62.4 89.225C62.6 89.225 62.8 89.225 62.9 89.225C63 89.225 63.1 89.225 63.2 89.225C63.3 89.225 63.3 89.125 63.4 89.125L63.5 89.025L65.2 85.725L66.9 89.025C66.9 89.125 67 89.125 67 89.125C67 89.125 67.1 89.225 67.2 89.225C67.3 89.225 67.4 89.225 67.5 89.225C67.6 89.225 67.8 89.225 68 89.225C68.3 89.225 68.5 89.225 68.6 89.225C68.7 89.225 68.9 89.225 68.9 89.125C69 89.025 69 89.025 68.9 88.925C68.9 88.825 68.8 88.725 68.7 88.525L66.6 84.525Z" fill="white"/>
<defs>
<linearGradient id="paint0_linear" x1="0.189301" y1="81.854" x2="104.392" y2="33.2635" gradientUnits="userSpaceOnUse">
<stop stop-color="#9F69F7"/>
<stop offset="0.116" stop-color="#8578F4"/>
<stop offset="0.367" stop-color="#5096ED"/>
<stop offset="0.4898" stop-color="#3CA2EB"/>
<stop offset="0.5428" stop-color="#35A7E7"/>
<stop offset="0.8415" stop-color="#10C3D4"/>
<stop offset="1" stop-color="#02CECD"/>
</linearGradient>
</defs>
</svg>
