<svg width="46" height="45" viewBox="0 0 46 45" fill="none" xmlns="http://www.w3.org/2000/svg">
<g filter="url(#filter0_d)">
<path d="M43.6799 20.4981C43.6667 31.7611 34.5265 40.8537 23.2421 40.8305C11.9875 40.8074 2.77769 31.6054 2.84065 20.3391C2.90362 8.78445 12.2725 -0.0165448 23.2951 2.33536e-05C34.5132 0.0232187 43.776 9.32457 43.6799 20.4981ZM10.3802 29.5278C11.033 30.0281 11.7323 30.3992 12.468 30.7074C15.0331 31.7777 17.6976 32.1588 20.4616 31.8771C24.5975 31.453 28.0839 29.7299 30.7816 26.5554C33.4196 23.4506 34.7386 19.8188 34.7485 15.7331C34.7485 15.3057 34.9175 15.0605 35.2191 14.7821C35.9018 14.1492 36.5282 13.45 37.1711 12.7707C37.2606 12.6746 37.297 12.5322 37.3998 12.3267C36.8728 12.499 36.4586 12.6415 36.0344 12.7707C35.292 12.9928 35.2191 12.9994 34.7419 12.8933C35.6433 12.1511 36.3525 11.3028 36.727 10.0735C36.4321 10.2093 36.2597 10.2988 36.0808 10.3684C35.2887 10.6666 34.4966 10.9582 33.7046 11.2564C33.3798 11.379 33.1379 11.3061 32.8661 11.0642C31.0368 9.44055 28.5943 9.1357 26.4501 10.2325C24.3954 11.2829 23.2421 13.4368 23.4475 15.8392C23.4641 16.0314 23.474 16.2235 23.4906 16.4919C21.194 16.3925 19.0995 15.7928 17.1077 14.7821C15.116 13.7748 13.439 12.3731 11.951 10.65C11.3611 11.5513 11.1689 12.4858 11.1722 13.4467C11.1789 15.2858 11.9444 16.7968 13.3264 18.046C12.9419 18.046 12.6006 18.0096 12.2725 17.9168C11.9179 17.8174 11.5765 17.665 11.1325 17.4993C11.2816 20.3424 12.7166 22.1085 15.2949 23.0496C15.2684 23.0927 15.2452 23.1391 15.2187 23.1822C14.5625 23.1822 13.9063 23.1822 13.2501 23.1822C13.4291 24.9682 15.3678 26.5289 18.2312 27.1718C15.8517 28.9512 13.2601 29.6338 10.3802 29.5278Z" fill="#6AADD1"/>
</g>
<defs>
<filter id="filter0_d" x="0.840332" y="0" width="44.8403" height="44.8306" filterUnits="userSpaceOnUse" color-interpolation-filters="sRGB">
<feFlood flood-opacity="0" result="BackgroundImageFix"/>
<feColorMatrix in="SourceAlpha" type="matrix" values="0 0 0 0 0 0 0 0 0 0 0 0 0 0 0 0 0 0 127 0"/>
<feOffset dy="2"/>
<feGaussianBlur stdDeviation="1"/>
<feColorMatrix type="matrix" values="0 0 0 0 0 0 0 0 0 0 0 0 0 0 0 0 0 0 0.25 0"/>
<feBlend mode="normal" in2="BackgroundImageFix" result="effect1_dropShadow"/>
<feBlend mode="normal" in="SourceGraphic" in2="effect1_dropShadow" result="shape"/>
</filter>
</defs>
</svg>
